<svg width="14" height="15" viewBox="0 0 14 15" fill="none" xmlns="http://www.w3.org/2000/svg">
<path fill-rule="evenodd" clip-rule="evenodd" d="M7 0.5C7.41421 0.5 7.75 0.835787 7.75 1.25V2.5001L9.61172 4.9824C9.89319 4.94522 10.2348 4.82953 10.5947 4.46967C10.8876 4.17678 11.3624 4.17678 11.6553 4.46967C11.9482 4.76256 11.9482 5.23744 11.6553 5.53033C11.0725 6.11321 10.475 6.34572 9.99751 6.43846C9.99916 6.45876 10 6.47928 10 6.5L10 8H10.7565C11.0735 8.00003 11.5643 8.00006 12.0947 7.46967C12.3876 7.17678 12.8624 7.17678 13.1553 7.46967C13.4482 7.76256 13.4482 8.23744 13.1553 8.53033C12.5725 9.11321 11.975 9.34572 11.4975 9.43846C11.4992 9.45876 11.5 9.47928 11.5 9.5L11.5 14L11.5 14.0049C11.4974 14.4168 11.1626 14.75 10.75 14.75H3.25C2.83579 14.75 2.5 14.4142 2.5 14L2.5 9.5C2.5 9.47928 2.50084 9.45876 2.50249 9.43846C2.02505 9.34572 1.42755 9.11321 0.84467 8.53033C0.551777 8.23744 0.551777 7.76256 0.84467 7.46967C1.13756 7.17678 1.61244 7.17678 1.90533 7.46967C2.43573 8.00006 2.9265 8.00003 3.24346 8H4L4 6.5C4 6.47928 4.00084 6.45876 4.00249 6.43846C3.52505 6.34572 2.92755 6.11321 2.34467 5.53033C2.05178 5.23744 2.05178 4.76256 2.34467 4.46967C2.63756 4.17678 3.11244 4.17678 3.40533 4.46967C3.76519 4.82953 4.10681 4.94522 4.38828 4.9824L6.25 2.5001L6.25 1.25C6.25 0.835786 6.58579 0.5 7 0.5ZM7.74992 5L7 4.0001L6.25008 5H7.74992ZM5.5 6.5L5.5 8H8.5L8.5 6.5H5.5ZM4 13.25L4 9.5H10L10 13.25H9.25L9.25 11C9.25 10.5858 8.91421 10.25 8.5 10.25H5.5C5.08579 10.25 4.75 10.5858 4.75 11L4.75 13.25H4ZM6.25 11.75L6.25 13.25L7.75 13.25L7.75 11.75H6.25Z" fill="currentColor"/>
</svg>