<svg width="16" height="16" viewBox="0 0 16 16" fill="none" xmlns="http://www.w3.org/2000/svg">
<path d="M8 15.5C3.8675 15.5 0.5 12.1325 0.5 8C0.5 3.8675 3.8675 0.5 8 0.5C12.1325 0.5 15.5 3.53 15.5 7.25C15.5 9.7325 13.4825 11.75 11 11.75H9.6725C9.4625 11.75 9.2975 11.915 9.2975 12.125C9.2975 12.215 9.335 12.2975 9.395 12.3725C9.7025 12.725 9.875 13.1675 9.875 13.625C9.875 14.66 9.035 15.5 8 15.5ZM8 2C4.6925 2 2 4.6925 2 8C2 11.3075 4.6925 14 8 14C8.21 14 8.375 13.835 8.375 13.625C8.375 13.505 8.315 13.415 8.27 13.3625C7.9625 13.0175 7.7975 12.575 7.7975 12.125C7.7975 11.09 8.6375 10.25 9.6725 10.25H11C12.6575 10.25 14 8.9075 14 7.25C14 4.355 11.3075 2 8 2Z" fill="currentColor"/>
<path d="M3.875 8.75C4.49632 8.75 5 8.24632 5 7.625C5 7.00368 4.49632 6.5 3.875 6.5C3.25368 6.5 2.75 7.00368 2.75 7.625C2.75 8.24632 3.25368 8.75 3.875 8.75Z" fill="currentColor"/>
<path d="M6.125 5.75C6.74632 5.75 7.25 5.24632 7.25 4.625C7.25 4.00368 6.74632 3.5 6.125 3.5C5.50368 3.5 5 4.00368 5 4.625C5 5.24632 5.50368 5.75 6.125 5.75Z" fill="currentColor"/>
<path d="M9.875 5.75C10.4963 5.75 11 5.24632 11 4.625C11 4.00368 10.4963 3.5 9.875 3.5C9.25368 3.5 8.75 4.00368 8.75 4.625C8.75 5.24632 9.25368 5.75 9.875 5.75Z" fill="currentColor"/>
<path d="M12.125 8.75C12.7463 8.75 13.25 8.24632 13.25 7.625C13.25 7.00368 12.7463 6.5 12.125 6.5C11.5037 6.5 11 7.00368 11 7.625C11 8.24632 11.5037 8.75 12.125 8.75Z" fill="currentColor"/>
</svg>