<svg width="16" height="12" viewBox="0 0 16 12" fill="none" xmlns="http://www.w3.org/2000/svg">
<path fill-rule="evenodd" clip-rule="evenodd" d="M12.0608 1.83792L12.8264 4.51756C14.3297 4.68023 15.5 5.95345 15.5 7.5C15.5 8.62257 14.8834 9.60114 13.9705 10.1155C13.7959 11.1843 12.8682 12 11.75 12C10.7703 12 9.93691 11.3739 9.62803 10.5H6.37197C6.06309 11.3739 5.22966 12 4.25 12C3.13182 12 2.20415 11.1843 2.02954 10.1155C1.11657 9.60114 0.5 8.62257 0.5 7.5C0.5 5.95345 1.67026 4.68023 3.17356 4.51756L3.93917 1.83792C4.12315 1.19397 4.71173 0.75 5.38145 0.75H10.6185C11.2883 0.75 11.8768 1.19397 12.0608 1.83792ZM8.75 2.25H10.6185L11.2614 4.5H8.75V2.25ZM6.37197 9H9.62803C9.93691 8.12611 10.7703 7.5 11.75 7.5C12.5293 7.5 13.216 7.89615 13.6198 8.49804C13.8563 8.2329 14 7.88323 14 7.5C14 6.67157 13.3284 6 12.5 6H3.5C2.67157 6 2 6.67157 2 7.5C2 7.88323 2.14372 8.2329 2.3802 8.49804C2.78401 7.89615 3.47074 7.5 4.25 7.5C5.22966 7.5 6.06309 8.12611 6.37197 9ZM7.25 4.5H4.7386L5.38145 2.25H7.25V4.5ZM12.5 9.75C12.5 10.1642 12.1642 10.5 11.75 10.5C11.3358 10.5 11 10.1642 11 9.75C11 9.33579 11.3358 9 11.75 9C12.1642 9 12.5 9.33579 12.5 9.75ZM4.25 10.5C4.66421 10.5 5 10.1642 5 9.75C5 9.33579 4.66421 9 4.25 9C3.83579 9 3.5 9.33579 3.5 9.75C3.5 10.1642 3.83579 10.5 4.25 10.5Z" fill="currentColor"/>
</svg>