<svg width="16" height="12" viewBox="0 0 16 12" fill="currentColor" xmlns="http://www.w3.org/2000/svg">
<path fill-rule="evenodd" clip-rule="evenodd" d="M7.68218 0.820667C7.88359 0.726444 8.11642 0.726444 8.31782 0.820667L15.0678 3.97856C15.3363 4.10418 15.5056 4.37616 15.4999 4.67254C15.4992 4.70416 15.4966 4.73542 15.4922 4.76618C15.4973 4.80171 15.5 4.83804 15.5 4.875V10.125C15.5 10.5392 15.1642 10.875 14.75 10.875C14.3358 10.875 14 10.5392 14 10.125V5.78746L12.875 6.26114V9C12.875 9.29411 12.7031 9.56107 12.4354 9.68277L8.31035 11.5578C8.11316 11.6474 7.88684 11.6474 7.68965 11.5578L3.56465 9.68277C3.2969 9.56107 3.125 9.29411 3.125 9V6.26114L0.958958 5.34912C0.685751 5.23409 0.505934 4.96892 0.500144 4.67254C0.494354 4.37616 0.663678 4.10418 0.932185 3.97856L7.68218 0.820667ZM8.29104 8.19123L11.375 6.89272V8.51707L8 10.0512L4.625 8.51707V6.89272L7.70896 8.19123C7.89507 8.26959 8.10493 8.26959 8.29104 8.19123ZM3.09701 4.62181L8 6.68623L12.903 4.62181L8 2.32802L3.09701 4.62181Z" fill="currentColor"/>
</svg>