<svg width="13" height="15" viewBox="0 0 13 15" fill="none" xmlns="http://www.w3.org/2000/svg">
<path d="M5.49986 9.875C5.08564 9.875 4.74986 10.2108 4.74986 10.625C4.74986 11.0392 5.08564 11.375 5.49986 11.375H9.24986C9.66407 11.375 9.99986 11.0392 9.99986 10.625C9.99986 10.2108 9.66407 9.875 9.24986 9.875H5.49986Z" fill="currentColor"/>
<path fill-rule="evenodd" clip-rule="evenodd" d="M3.34252 2.91399L1.25199 3.67489C0.862756 3.81655 0.662066 4.24694 0.803735 4.63617L1.74999 7.23597L1.74986 7.25V14C1.74986 14.4142 2.08564 14.75 2.49986 14.75H12.2499C12.6641 14.75 12.9999 14.4142 12.9999 14V7.25C12.9999 6.83579 12.6641 6.5 12.2499 6.5H6.64716L9.11 5.6036C9.12674 5.59817 9.14333 5.59214 9.15972 5.58551L11.2483 4.82532C11.6375 4.68365 11.8382 4.25327 11.6966 3.86404L10.6705 1.04496C10.5288 0.655725 10.0985 0.455035 9.70922 0.596704L3.3885 2.89726C3.37303 2.90232 3.35769 2.9079 3.34252 2.91399ZM2.46979 4.82791L2.98282 6.23745L4.66142 5.62649L3.44362 4.47346L2.46979 4.82791ZM10.0305 3.6723L9.05672 4.02673L7.83892 2.87371L9.51748 2.26276L10.0305 3.6723ZM7.48081 4.60032L6.26301 3.44729L5.01953 3.89988L6.23733 5.0529L7.48081 4.60032ZM3.24986 8V13.25H11.4999V8H3.24986Z" fill="currentColor"/>
</svg>