<svg width="16" height="10" viewBox="0 0 16 10" fill="none" xmlns="http://www.w3.org/2000/svg">
<path d="M4.25 0.5C4.66421 0.5 5 0.835786 5 1.25V4.25H11V1.25C11 0.835787 11.3358 0.5 11.75 0.5C12.1642 0.5 12.5 0.835786 12.5 1.25V2.75C12.5 2.33579 12.8358 2 13.25 2C13.6642 2 14 2.33579 14 2.75V4.25H14.75C15.1642 4.25 15.5 4.58579 15.5 5C15.5 5.41421 15.1642 5.75 14.75 5.75H14V7.25C14 7.66421 13.6642 8 13.25 8C12.8358 8 12.5 7.66421 12.5 7.25V8.75C12.5 9.16421 12.1642 9.5 11.75 9.5C11.3358 9.5 11 9.16421 11 8.75V5.75H5V8.75C5 9.16421 4.66421 9.5 4.25 9.5C3.83579 9.5 3.5 9.16421 3.5 8.75V7.25C3.5 7.66421 3.16421 8 2.75 8C2.33579 8 2 7.66421 2 7.25V5.75H1.25C0.835786 5.75 0.5 5.41421 0.5 5C0.5 4.58579 0.835786 4.25 1.25 4.25H2V2.75C2 2.33579 2.33579 2 2.75 2C3.16421 2 3.5 2.33579 3.5 2.75V1.25C3.5 0.835787 3.83579 0.5 4.25 0.5Z" fill="currentColor"/>
</svg>