<svg width="16" height="17" viewBox="0 0 16 17" fill="none" xmlns="http://www.w3.org/2000/svg">
<path fill-rule="evenodd" clip-rule="evenodd" d="M14.6281 2.4019C12.8127 1.28186 10.3798 0.750002 7.99999 0.75C5.62023 0.75 3.18732 1.28186 1.37186 2.40192C0.785788 2.7635 0.5 3.39907 0.5 4.01423C0.5 4.89737 1.0696 5.56141 1.69653 5.91895C1.84376 6.00291 2.00231 6.07508 2.16846 6.13262L2.87924 7.50341C2.94842 7.69814 3.04367 7.88053 3.16077 8.04637L7.33434 16.0954C7.46328 16.3441 7.72004 16.5002 8.00016 16.5002C8.28027 16.5002 8.53703 16.3441 8.66597 16.0954L11.1802 11.2465C11.4266 10.97 11.6058 10.6324 11.6921 10.2592L13.8319 6.13248C13.9979 6.07496 14.1564 6.00285 14.3035 5.91895C14.9304 5.56141 15.5 4.89736 15.5 4.01423C15.5 3.39905 15.2142 2.76348 14.6281 2.4019ZM5.33227 8.97564L8.00016 14.1208L9.11671 11.9675C8.05665 11.7856 7.25 10.862 7.25 9.75C7.25 8.50736 8.25736 7.5 9.5 7.5C10.1215 7.5 10.6841 7.75197 11.0913 8.15933L12.1348 6.14691C12.1222 6.14236 12.1097 6.13768 12.0972 6.13288C11.0712 5.73961 9.69546 5.4 8 5.4C7.59483 5.4 7.20793 5.41939 6.83969 5.45428C7.09817 5.82061 7.25 6.26757 7.25 6.75C7.25 7.87975 6.41736 8.81503 5.33227 8.97564ZM4.4325 7.24037L4.27189 6.93062C4.25759 6.87277 4.25 6.81227 4.25 6.75C4.25 6.33579 4.58579 6 5 6C5.41421 6 5.75 6.33579 5.75 6.75C5.75 7.16421 5.41421 7.5 5 7.5C4.77327 7.5 4.57003 7.39939 4.4325 7.24037ZM9.9589 10.3433L10.2493 9.78325C10.2498 9.77223 10.25 9.76114 10.25 9.75C10.25 9.33579 9.91421 9 9.5 9C9.08579 9 8.75 9.33579 8.75 9.75C8.75 10.1642 9.08579 10.5 9.5 10.5C9.67286 10.5 9.83206 10.4415 9.9589 10.3433ZM2.15946 3.67851C3.67264 2.74494 5.80974 2.25 7.99999 2.25C10.1902 2.25 12.3274 2.74495 13.8405 3.6785C13.9231 3.72943 14 3.84376 14 4.01423C14 4.19949 13.8762 4.43582 13.5604 4.61595C13.244 4.79639 12.8833 4.82779 12.6341 4.73226C11.4572 4.28116 9.89974 3.9 8 3.9C6.10026 3.9 4.54276 4.28116 3.36594 4.73226C3.11672 4.82779 2.75602 4.79639 2.43963 4.61596C2.12378 4.43582 2 4.1995 2 4.01423C2 3.84377 2.07691 3.72944 2.15946 3.67851Z" fill="currentColor"/>
</svg>