<svg width="14" height="16" viewBox="0 0 14 16" fill="none" xmlns="http://www.w3.org/2000/svg">
<path fill-rule="evenodd" clip-rule="evenodd" d="M10.75 9.5C11.1642 9.5 11.5 9.83579 11.5 10.25V12.5C11.5 12.9142 11.1642 13.25 10.75 13.25C10.3358 13.25 10 12.9142 10 12.5V10.25C10 9.83579 10.3358 9.5 10.75 9.5Z" fill="currentColor"/>
<path d="M10.75 9.125C11.3713 9.125 11.875 8.62132 11.875 8C11.875 7.37868 11.3713 6.875 10.75 6.875C10.1287 6.875 9.625 7.37868 9.625 8C9.625 8.62132 10.1287 9.125 10.75 9.125Z" fill="currentColor"/>
<path d="M7.96967 8.96967C8.26256 8.67678 8.73744 8.67678 9.03033 8.96967L9.56066 9.5L10.7513 9.5C10.7868 9.50004 10.8224 9.50259 10.8578 9.50769C10.9953 9.52748 11.1207 9.58457 11.2236 9.66839L13.0935 11.1644C13.417 11.4231 13.4694 11.8951 13.2107 12.2185C12.9519 12.542 12.48 12.5944 12.1565 12.3357L10.4869 11H9.25C9.05109 11 8.86032 10.921 8.71967 10.7803L7.96967 10.0303C7.67678 9.73744 7.67678 9.26256 7.96967 8.96967Z" fill="currentColor"/>
<path fill-rule="evenodd" clip-rule="evenodd" d="M10.4867 11.0478C10.8745 10.9023 11.3068 11.0988 11.4522 11.4867L12.5772 14.4867C12.7227 14.8745 12.5262 15.3068 12.1383 15.4522C11.7505 15.5977 11.3182 15.4012 11.1728 15.0133L10.0478 12.0133C9.90231 11.6255 10.0988 11.1932 10.4867 11.0478Z" fill="currentColor"/>
<path fill-rule="evenodd" clip-rule="evenodd" d="M11.0133 11.0478C11.4012 11.1932 11.5977 11.6255 11.4522 12.0133L10.3272 15.0133C10.1818 15.4012 9.7495 15.5977 9.36166 15.4522C8.97382 15.3068 8.77731 14.8745 8.92275 14.4867L10.0478 11.4867C10.1932 11.0988 10.6255 10.9023 11.0133 11.0478Z" fill="currentColor"/>
<path d="M4 2.75C4.62132 2.75 5.125 2.24632 5.125 1.625C5.125 1.00368 4.62132 0.5 4 0.5C3.37868 0.5 2.875 1.00368 2.875 1.625C2.875 2.24632 3.37868 2.75 4 2.75Z" fill="currentColor"/>
<path d="M4.1157 3.13387C4.21872 3.14982 4.31481 3.18674 4.39947 3.24012C4.45132 3.27267 4.49954 3.3118 4.54275 3.35712C4.59042 3.40699 4.6303 3.46259 4.66194 3.52204L6.41807 6.68308L7.71055 7.32932C8.08103 7.51456 8.2312 7.96506 8.04596 8.33555C7.86071 8.70603 7.41021 8.8562 7.03973 8.67096L5.53973 7.92096C5.40454 7.85336 5.29292 7.7465 5.21952 7.61437L4.75 6.76924V7.4799L6.23437 11.1908L6.62061 14.667C6.66635 15.0787 6.3697 15.4495 5.95802 15.4952C5.54634 15.541 5.17553 15.2443 5.12979 14.8327L4.76603 11.5588L4.34343 10.5023L3.61491 14.8734C3.54682 15.282 3.1604 15.558 2.75182 15.4899C2.34324 15.4218 2.06723 15.0354 2.13532 14.6268L3.25 7.93875V6.52506L1.63885 9.14318C1.42176 9.49595 0.959801 9.60594 0.607032 9.38885C0.254264 9.17176 0.144273 8.7098 0.361362 8.35703L3.35086 3.4991C3.37423 3.45883 3.40123 3.42095 3.43142 3.38588C3.4402 3.37568 3.44928 3.36568 3.45865 3.35591C3.48904 3.32416 3.52184 3.2955 3.55659 3.27005C3.68079 3.17886 3.8341 3.125 4 3.125C4.03935 3.125 4.07799 3.12803 4.1157 3.13387Z" fill="currentColor"/>
</svg>