<svg width="12" height="16" viewBox="0 0 12 16" fill="none" xmlns="http://www.w3.org/2000/svg">
<path fill-rule="evenodd" clip-rule="evenodd" d="M7.98437 5.75C8.60718 5.20029 9 4.39602 9 3.5C9 1.84315 7.65685 0.5 6 0.5C4.34315 0.5 3 1.84315 3 3.5C3 4.39602 3.39282 5.20029 4.01563 5.75H3C2.58579 5.75 2.25 6.08579 2.25 6.5C2.25 6.91421 2.58579 7.25 3 7.25H3.43118C3.51759 7.74814 3.56873 8.46696 3.4721 9.18443C3.3728 9.92173 3.13155 10.5644 2.7089 11H2.25C1.83579 11 1.5 11.3358 1.5 11.75C1.5 12.0147 1.63714 12.2474 1.84426 12.3809C1.57638 12.8163 1.38337 13.3546 1.35324 14H0.75C0.335786 14 0 14.3358 0 14.75C0 15.1642 0.335786 15.5 0.75 15.5H11.25C11.6642 15.5 12 15.1642 12 14.75C12 14.3358 11.6642 14 11.25 14H10.6468C10.6166 13.3546 10.4236 12.8163 10.1557 12.3809C10.3629 12.2474 10.5 12.0147 10.5 11.75C10.5 11.3358 10.1642 11 9.75 11H9.28817C8.86552 10.5644 8.62427 9.92173 8.52497 9.18443C8.42834 8.46696 8.47948 7.74814 8.56589 7.25H9C9.41421 7.25 9.75 6.91421 9.75 6.5C9.75 6.08579 9.41421 5.75 9 5.75H7.98437ZM7.5 3.5C7.5 4.32843 6.82843 5 6 5C5.17157 5 4.5 4.32843 4.5 3.5C4.5 2.67157 5.17157 2 6 2C6.82843 2 7.5 2.67157 7.5 3.5ZM8.18796 12.5H3.81204C3.46223 12.6863 2.93181 13.1616 2.85937 14H9.14063C9.06819 13.1616 8.53777 12.6863 8.18796 12.5ZM4.50025 11H7.49682C7.24748 10.4725 7.10914 9.90991 7.03839 9.38464C6.93427 8.61154 6.96622 7.85002 7.04833 7.25H4.94874C5.03085 7.85002 5.0628 8.61154 4.95868 9.38464C4.88793 9.90991 4.74959 10.4725 4.50025 11Z" fill="currentColor"/>
</svg>