<svg width="15" height="14" viewBox="0 0 15 14" fill="none" xmlns="http://www.w3.org/2000/svg">
<path fill-rule="evenodd" clip-rule="evenodd" d="M1 0.25C0.585786 0.25 0.25 0.585786 0.25 1C0.25 1.41421 0.585786 1.75 1 1.75L2.5 1.75V13C2.5 13.4142 2.83579 13.75 3.25 13.75H13C13.4142 13.75 13.75 13.4142 13.75 13C13.75 12.5858 13.4142 12.25 13 12.25H11.5V7.13394C12.8294 6.25378 13.7348 4.71445 14.1153 2.23885C14.1499 2.0133 14.08 1.78424 13.9253 1.61648C13.7706 1.44873 13.548 1.36052 13.3204 1.37684C12.6619 1.42403 12.0565 1.52484 11.5 1.67229V1C11.5 0.948224 11.4948 0.897673 11.4848 0.84885C11.4148 0.507087 11.1124 0.25 10.75 0.25H1ZM10 1.75L4 1.75V12.25H10V7.81137C9.15107 8.0535 8.25317 8.12 7.38073 8.12739C7.20601 8.78125 7.08341 9.45014 6.99159 10.1043C6.93401 10.5145 6.55481 10.8004 6.14462 10.7428C5.73443 10.6852 5.44858 10.306 5.50615 9.89582C5.62689 9.03565 5.80436 8.09627 6.09908 7.16457C6.10243 7.15308 6.10604 7.1417 6.10992 7.13045C6.3987 6.22652 6.79857 5.33082 7.36483 4.52271C8.01674 3.59237 8.87629 2.79668 10 2.23436V1.75ZM7.90636 6.61284C8.94308 6.56552 9.83278 6.39589 10.5599 5.95428C11.3341 5.48407 12.0269 4.63628 12.4366 2.99815C10.5662 3.34587 9.38301 4.25645 8.59327 5.3835C8.32463 5.76686 8.09819 6.18016 7.90636 6.61284Z" fill="currentColor"/>
</svg>