<svg width="16" height="16" viewBox="0 0 16 16" fill="none" xmlns="http://www.w3.org/2000/svg">
<path fill-rule="evenodd" clip-rule="evenodd" d="M12.125 8.375C12.125 10.8603 10.4853 12.5 8 12.5C5.51472 12.5 3.875 10.8603 3.875 8.375C3.875 8 4.625 8 8 8C11.375 8 12.125 8 12.125 8.375ZM5.56316 9.51131C6.12633 9.5005 6.90868 9.5 8 9.5C9.09132 9.5 9.87367 9.5005 10.4368 9.51131C10.3135 9.8413 10.1376 10.1051 9.93382 10.3088C9.53485 10.7078 8.90571 11 8 11C7.09429 11 6.46515 10.7078 6.06618 10.3088C5.86243 10.1051 5.68653 9.8413 5.56316 9.51131Z" fill="currentColor"/>
<path d="M5.66074 6.1052L5.65684 6.11233L5.65534 6.11501C5.65462 6.11627 5.65435 6.11671 5.65453 6.11642L5.65534 6.11501C5.45661 6.47192 5.00749 6.60482 4.64603 6.41121C4.2809 6.21564 4.14344 5.7611 4.33901 5.39596L5.0001 5.75005C4.33901 5.39596 4.33887 5.39622 4.33901 5.39596L4.33958 5.3949L4.34018 5.39378L4.34148 5.39138L4.34449 5.38589L4.35211 5.37231C4.35791 5.36214 4.36517 5.34973 4.3739 5.33539C4.39131 5.30681 4.41489 5.27005 4.44474 5.22784C4.50362 5.14455 4.59127 5.03378 4.70929 4.92135C4.94125 4.70039 5.34039 4.42871 5.89368 4.42871C6.44975 4.42871 6.84682 4.70292 7.07729 4.92913C7.19383 5.04351 7.27945 5.15613 7.33664 5.24072C7.36565 5.28362 7.38848 5.321 7.40531 5.35012C7.41376 5.36472 7.42078 5.37739 7.42639 5.3878L7.43377 5.40173L7.4367 5.40738L7.43797 5.40987L7.43856 5.41103C7.43869 5.4113 7.43911 5.41213 6.76956 5.75007L7.43911 5.41213C7.62575 5.78191 7.47728 6.23298 7.1075 6.41962C6.74173 6.60423 6.29644 6.46097 6.10618 6.09997C6.10447 6.09706 6.10038 6.0903 6.094 6.08087C6.07877 6.05833 6.05557 6.0281 6.02658 5.99965C5.96599 5.94018 5.92512 5.92871 5.89368 5.92871C5.85947 5.92871 5.81184 5.94272 5.74391 6.00743C5.71199 6.03784 5.68641 6.06991 5.66955 6.09376C5.66199 6.10446 5.65723 6.11194 5.65534 6.11501L5.65684 6.11233L5.65759 6.11098L5.65926 6.10795L5.66022 6.10616L5.66074 6.1052Z" fill="currentColor"/>
<path fill-rule="evenodd" clip-rule="evenodd" d="M10.1553 6.11515C10.1572 6.11207 10.162 6.10446 10.1695 6.09376C10.1864 6.06991 10.212 6.03784 10.2439 6.00743C10.3118 5.94272 10.3595 5.92871 10.3937 5.92871C10.4251 5.92871 10.466 5.94018 10.5266 5.99965C10.5556 6.0281 10.5788 6.05833 10.594 6.08087C10.6004 6.0903 10.6045 6.09706 10.6062 6.09997C10.7964 6.46097 11.2417 6.60423 11.6075 6.41962C11.9773 6.23298 12.1258 5.78191 11.9391 5.41213L11.2696 5.75007C11.9391 5.41213 11.9392 5.4124 11.9391 5.41213L11.9386 5.41103L11.938 5.40987L11.9367 5.40738L11.9338 5.40173L11.9264 5.3878C11.9208 5.37739 11.9138 5.36472 11.9053 5.35012C11.8885 5.321 11.8656 5.28362 11.8366 5.24072C11.7795 5.15613 11.6938 5.04351 11.5773 4.92913C11.3468 4.70292 10.9497 4.42871 10.3937 4.42871C9.84039 4.42871 9.44125 4.70039 9.20929 4.92135C9.09127 5.03378 9.00362 5.14455 8.94474 5.22784C8.91489 5.27005 8.89131 5.30681 8.8739 5.33539C8.86517 5.34973 8.85791 5.36214 8.85211 5.37231L8.84449 5.38589L8.84149 5.39138L8.84018 5.39378L8.83958 5.3949C8.83944 5.39516 8.83901 5.39596 9.5001 5.75005L8.83901 5.39596C8.64344 5.7611 8.7809 6.21564 9.14603 6.41121C9.50749 6.60482 9.95657 6.47206 10.1553 6.11515ZM10.1568 6.11232L10.1607 6.1052L10.1602 6.10616L10.1593 6.10795L10.1576 6.11098L10.1568 6.11232Z" fill="currentColor"/>
<path fill-rule="evenodd" clip-rule="evenodd" d="M15.5 8C15.5 12.1421 12.1421 15.5 8 15.5C3.85786 15.5 0.5 12.1421 0.5 8C0.5 3.85786 3.85786 0.5 8 0.5C12.1421 0.5 15.5 3.85786 15.5 8ZM14 8C14 11.3137 11.3137 14 8 14C4.68629 14 2 11.3137 2 8C2 4.68629 4.68629 2 8 2C11.3137 2 14 4.68629 14 8Z" fill="currentColor"/>
</svg>