<svg width="14" height="14" viewBox="0 0 14 14" fill="none" xmlns="http://www.w3.org/2000/svg">
<path d="M6.99929 0.250001C6.84228 0.249734 6.68387 0.298581 6.54858 0.400046L3.24929 2.87451V1.75014C3.24929 1.33592 2.91351 1.00014 2.49929 1.00014C2.08508 1.00014 1.74929 1.33592 1.74929 1.75014L1.74929 3.99951L0.548579 4.90005C0.217208 5.14857 0.150051 5.61868 0.398579 5.95005C0.647107 6.28142 1.11721 6.34857 1.44858 6.10005L1.74929 5.87451V13.0001C1.74929 13.3885 2.04442 13.7079 2.42261 13.7463C2.44782 13.7488 2.47341 13.7501 2.4993 13.7501H11.4993C11.9135 13.7501 12.2493 13.4144 12.2493 13.0001V10.7501C12.2493 10.3359 11.9135 10.0001 11.4993 10.0001C11.0851 10.0001 10.7493 10.3359 10.7493 10.7501V12.2501L3.24929 12.2501L3.24929 4.74951L6.99929 1.93701L10.7493 4.75014V6.25014C10.7493 6.66435 11.0851 7.00014 11.4993 7.00014C11.9135 7.00014 12.2493 6.66435 12.2493 6.25014V5.87451L12.55 6.10005C12.8814 6.34857 13.3515 6.28142 13.6 5.95005C13.8485 5.61868 13.7814 5.14857 13.45 4.90005L7.45001 0.400046C7.31472 0.298581 7.15631 0.249734 6.99929 0.250001Z" fill="currentColor"/>
<path d="M8.28033 5.71967C8.57322 6.01256 8.57322 6.48744 8.28033 6.78033L7.31066 7.75L13 7.75C13.4142 7.75 13.75 8.08579 13.75 8.5C13.75 8.91422 13.4142 9.25 13 9.25L7.31066 9.25L8.28033 10.2197C8.57322 10.5126 8.57322 10.9874 8.28033 11.2803C7.98744 11.5732 7.51256 11.5732 7.21967 11.2803L4.96967 9.03033C4.89776 8.95842 4.84351 8.87555 4.80691 8.78709C4.77024 8.69866 4.75 8.60169 4.75 8.5C4.75 8.29289 4.83395 8.10539 4.96967 7.96967L7.21967 5.71967C7.51256 5.42678 7.98744 5.42678 8.28033 5.71967Z" fill="currentColor"/>
</svg>