<svg width="15" height="15" viewBox="0 0 15 15" fill="none" xmlns="http://www.w3.org/2000/svg">
<path fill-rule="evenodd" clip-rule="evenodd" d="M14.4839 0.427027C14.6527 0.569531 14.75 0.779155 14.75 1.00001V10.1C14.75 10.1337 14.7478 10.1668 14.7435 10.1993C14.6409 11.7632 13.3399 13 11.75 13C10.0931 13 8.75 11.6569 8.75 10C8.75 8.34315 10.0931 7 11.75 7C12.2964 7 12.8087 7.14609 13.25 7.40135V1.888L6.5 3.03346V11.5L6.5 11.5024C6.49868 13.1582 5.15604 14.5 3.5 14.5C1.84315 14.5 0.5 13.1569 0.5 11.5C0.5 9.84315 1.84315 8.5 3.5 8.5C4.04643 8.5 4.55874 8.64609 5 8.90135V2.40001C5 2.03421 5.26388 1.72178 5.62452 1.66058L13.8745 0.260577C14.0923 0.223627 14.3152 0.284523 14.4839 0.427027ZM13.25 10C13.25 9.17157 12.5784 8.5 11.75 8.5C10.9216 8.5 10.25 9.17157 10.25 10C10.25 10.8284 10.9216 11.5 11.75 11.5C12.5784 11.5 13.25 10.8284 13.25 10ZM3.5 10C4.32843 10 5 10.6716 5 11.5C5 12.3284 4.32843 13 3.5 13C2.67157 13 2 12.3284 2 11.5C2 10.6716 2.67157 10 3.5 10Z" fill="currentColor"/>
</svg>