<svg width="16" height="16" viewBox="0 0 16 16" fill="none" xmlns="http://www.w3.org/2000/svg">
<path d="M8.93901 6.7398C8.79887 6.87696 8.54823 7.10688 8.18921 7.42796C8.09293 7.51577 8.0175 7.59147 7.96154 7.6554C7.90906 7.71577 7.87403 7.76734 7.85259 7.81022L7.8511 7.81321C7.82698 7.85903 7.8078 7.90558 7.7934 7.95298C7.77965 8.00554 7.75731 8.10039 7.72604 8.23961C7.6937 8.41377 7.62384 8.56397 7.50241 8.67009C7.37916 8.77781 7.22166 8.82365 7.04738 8.82365C6.85677 8.82365 6.68817 8.75983 6.55162 8.63087L6.54998 8.62932C6.40646 8.48991 6.34798 8.29414 6.34798 8.07164C6.34798 7.81033 6.38834 7.57624 6.47459 7.37369C6.55727 7.17665 6.66787 7.00286 6.80697 6.8539C6.938 6.71076 7.11204 6.54452 7.32742 6.35569C7.51406 6.19238 7.64518 6.0725 7.72298 5.9947C7.79715 5.92054 7.85789 5.83938 7.90584 5.75106L7.90751 5.74799C7.95186 5.67037 7.97408 5.58683 7.97408 5.49443C7.97408 5.30648 7.90594 5.15183 7.76308 5.02088L7.76209 5.01997C7.62422 4.89145 7.44206 4.82194 7.20079 4.82194C6.90404 4.82194 6.71851 4.89738 6.6082 5.01617L6.60722 5.01723C6.47766 5.15427 6.35886 5.36763 6.25782 5.67007C6.2026 5.85249 6.11811 6.00555 5.99479 6.11357C5.8681 6.22454 5.71277 6.27711 5.53962 6.27711C5.33421 6.27711 5.15442 6.20375 5.00989 6.05922L5.00698 6.05632C4.87364 5.91595 4.79639 5.75239 4.79639 5.56894C4.79639 5.25555 4.89731 4.94596 5.08816 4.64237C5.2831 4.32932 5.56514 4.07482 5.9273 3.87672C6.29648 3.67477 6.72265 3.57654 7.20079 3.57654C7.64434 3.57654 8.04288 3.65917 8.39244 3.82912C8.73963 3.99499 9.01312 4.22503 9.20627 4.52099C9.4013 4.81532 9.5 5.13804 9.5 5.48566C9.5 5.75608 9.44424 6.00076 9.32741 6.21477C9.22103 6.41483 9.09171 6.59028 8.93901 6.7398Z" fill="currentColor"/>
<path d="M6.52012 10.9628C6.34821 10.81 6.26908 10.6007 6.26908 10.3565C6.26908 10.1304 6.34994 9.93382 6.5102 9.77721C6.67003 9.62101 6.86859 9.54309 7.0956 9.54309C7.32049 9.54309 7.51665 9.62161 7.67354 9.77851C7.83044 9.9354 7.90896 10.1316 7.90896 10.3565C7.90896 10.5986 7.82932 10.806 7.65792 10.9584C7.49775 11.1008 7.30813 11.1742 7.0956 11.1742C6.87987 11.1742 6.68669 11.1041 6.52295 10.9652L6.52012 10.9628Z" fill="currentColor"/>
<path fill-rule="evenodd" clip-rule="evenodd" d="M12.5097 11.481C13.442 10.3235 14 8.85192 14 7.25C14 3.52208 10.9779 0.5 7.25 0.5C3.52208 0.5 0.5 3.52208 0.5 7.25C0.5 10.9779 3.52208 14 7.25 14C8.85192 14 10.3235 13.442 11.481 12.5097C11.512 12.5616 11.5499 12.6106 11.5947 12.6553L13.8447 14.9053C14.1376 15.1982 14.6124 15.1982 14.9053 14.9053C15.1982 14.6124 15.1982 14.1376 14.9053 13.8447L12.6553 11.5947C12.6106 11.5499 12.5616 11.512 12.5097 11.481ZM7.25 12.5C10.1495 12.5 12.5 10.1495 12.5 7.25C12.5 4.35051 10.1495 2 7.25 2C4.35051 2 2 4.35051 2 7.25C2 10.1495 4.35051 12.5 7.25 12.5Z" fill="currentColor"/>
</svg>