<svg width="15" height="15" viewBox="0 0 15 15" fill="none" xmlns="http://www.w3.org/2000/svg">
<path fill-rule="evenodd" clip-rule="evenodd" d="M4.37255 11.3295C5.19103 12.0167 6.07976 12.3627 7.02429 12.3627H7.12929C8.38929 12.3327 9.67929 11.6652 10.9543 10.3902C12.402 8.94251 12.7434 7.22757 13.0718 5.57775L13.0768 5.55268L13.0771 5.55124C13.362 4.10427 13.6321 2.73225 14.5918 1.43518C14.7643 1.20268 14.7868 0.902676 14.6593 0.647676C14.5318 0.392676 14.2618 0.250176 13.9843 0.242676H13.2793C9.79179 0.265176 6.78429 0.287676 3.82179 3.25018C2.04429 5.02768 1.98429 6.77518 2.23929 7.93768C2.44456 8.85903 2.88685 9.63149 3.31472 10.2028C2.35507 11.8036 0.79059 13.1591 0.770253 13.1727C0.455253 13.4427 0.417753 13.9152 0.687753 14.2302C0.837753 14.4027 1.04775 14.4927 1.25775 14.4927L1.25025 14.4852C1.42275 14.4852 1.59525 14.4252 1.73775 14.3052C1.81322 14.2423 3.29134 12.9718 4.37255 11.3295ZM5.11937 9.99121C5.74218 10.5882 6.39937 10.8987 7.08429 10.8627C7.94679 10.8402 8.89179 10.3227 9.88929 9.32518C11.0218 8.19268 11.2918 6.83518 11.5993 5.26018C11.8168 4.15768 12.0568 2.95018 12.6493 1.75018C9.55929 1.78018 7.24179 1.94518 4.87929 4.31518C3.84429 5.35018 3.44679 6.46018 3.70179 7.61518C3.78968 8.01201 3.94377 8.37669 4.12041 8.69645C6.32047 4.81707 8.95734 3.43265 9.14157 3.33593C9.14409 3.3346 9.14616 3.33352 9.14775 3.33267C9.51525 3.14517 9.96525 3.30267 10.1528 3.67017C10.3403 4.03767 10.1828 4.48767 9.81525 4.67517C9.81525 4.67517 9.81179 4.67716 9.80686 4.67988C9.64152 4.77117 7.10763 6.17026 5.11937 9.99121Z" fill="currentColor"/>
</svg>