<svg width="13" height="12" viewBox="0 0 13 12" fill="none" xmlns="http://www.w3.org/2000/svg">
<path fill-rule="evenodd" clip-rule="evenodd" d="M11.7977 3.99L8.80523 0.975C8.66273 0.8325 8.47523 0.7575 8.27273 0.75C8.07023 0.75 7.88273 0.8325 7.74023 0.9675L5.26514 3.44259L4.2975 2.46768C4.155 2.32518 3.9675 2.24268 3.765 2.24268C3.5625 2.24268 3.375 2.31768 3.2325 2.46018L0.2175 5.47518C0.0749999 5.61768 0 5.81268 0 6.00768V10.5077C0 10.7102 0.0749999 10.9052 0.2175 11.0402C0.36 11.1752 0.5475 11.2577 0.75 11.2577H6.7575C7.17 11.2577 7.5075 10.9202 7.5075 10.5077V9.765H11.2652C11.6777 9.765 12.0152 9.4275 12.0152 9.015V4.515C12.0152 4.32 11.9402 4.125 11.7977 3.99ZM7.29 5.48268L6.32242 4.50782L8.27273 2.5575L10.5152 4.8225V8.265H7.5075V6.00768C7.5075 5.81268 7.4325 5.62518 7.29 5.48268ZM1.5 6.31518V9.75768H3V7.49982H4.5V9.75768H6.0075V6.31518L3.765 4.05018L1.5 6.31518Z" fill="currentColor"/>
</svg>