<svg width="16" height="13" viewBox="0 0 16 13" fill="none" xmlns="http://www.w3.org/2000/svg">
<path fill-rule="evenodd" clip-rule="evenodd" d="M12.5073 7.66057C14.1974 7.30064 15.4704 5.79514 15.4704 3.99982C15.4704 1.93732 13.7904 0.257324 11.7279 0.257324C9.66535 0.257324 7.98535 1.93732 7.98535 3.99982C7.98535 5.81595 9.28796 7.33551 11.0073 7.67262V10.75C11.0073 11.1625 11.3448 11.5 11.7573 11.5C12.1698 11.5 12.5073 11.1625 12.5073 10.75V7.66057ZM12.5073 6.11038C13.3612 5.79335 13.9704 4.9708 13.9704 4.00732C13.9704 2.76982 12.9654 1.76482 11.7279 1.76482C10.4904 1.76482 9.48535 2.76982 9.48535 4.00732C9.48535 4.99283 10.1227 5.83089 11.0073 6.13133V4.75C11.0073 4.3375 11.3448 4 11.7573 4C12.1698 4 12.5073 4.3375 12.5073 4.75V6.11038Z" fill="currentColor"/>
<path fill-rule="evenodd" clip-rule="evenodd" d="M7.23535 8.50018H6.70224L7.14144 10.0223H8C8.4125 10.0223 8.75 10.3598 8.75 10.7723C8.75 11.1848 8.4125 11.5223 8 11.5223H7.57425L7.7301 12.0625C7.8651 12.52 7.5201 12.9775 7.0401 12.9775C6.7176 12.9775 6.4401 12.7675 6.3501 12.46H6.3576L6.0852 11.5223H3.14007L2.86952 12.46C2.77952 12.7675 2.50202 12.9775 2.17952 12.9775L2.18702 12.985H2.15702C1.67702 12.985 1.33202 12.5275 1.46702 12.0625L1.62608 11.5223H1.25C0.8375 11.5223 0.5 11.1848 0.5 10.7723C0.5 10.3598 0.8375 10.0223 1.25 10.0223H2.06778L2.516 8.50018H1.98535C1.57285 8.50018 1.23535 8.15518 1.23535 7.74268C1.23535 7.33018 1.57285 6.99268 1.98535 6.99268H7.23535C7.64785 6.99268 7.98535 7.33768 7.98535 7.75018C7.98535 8.16268 7.64785 8.50018 7.23535 8.50018ZM3.99303 8.50018C3.99011 8.55458 3.98081 8.60979 3.96452 8.665L3.57287 10.0223H5.64943L5.2551 8.665C5.23881 8.60979 5.22951 8.55458 5.22659 8.50018H3.99303Z" fill="currentColor"/>
</svg>