<svg width="12" height="14" viewBox="0 0 12 14" fill="none" xmlns="http://www.w3.org/2000/svg">
<path fill-rule="evenodd" clip-rule="evenodd" d="M1.66503 13.015H10.35L10.335 13.0075C10.9425 13.0075 11.4975 12.6775 11.7825 12.145C12.0675 11.605 12.0375 10.96 11.7 10.4575L8.31003 5.3725C8.27253 5.3125 8.25003 5.2375 8.25003 5.1625V1.75H8.25732C8.66982 1.75 9.00732 1.4125 9.00732 1C9.00732 0.5875 8.66982 0.25 8.25732 0.25H3.75732C3.34482 0.25 3.00732 0.5875 3.00732 1C3.00732 1.41007 3.34085 1.74601 3.75003 1.74996V5.1625C3.75003 5.2375 3.72753 5.3125 3.69003 5.3725L0.30003 10.4575C-0.0374696 10.9675 -0.0674697 11.6125 0.21753 12.145C0.50253 12.685 1.05753 13.015 1.66503 13.015ZM5.25753 1.75V5.1625C5.25753 5.5375 5.14503 5.8975 4.94253 6.205L1.55253 11.29C1.52253 11.335 1.52253 11.3875 1.55253 11.4325C1.58253 11.4775 1.62003 11.5075 1.68003 11.5075H10.365C10.4175 11.5075 10.4625 11.485 10.4925 11.4325C10.5225 11.38 10.515 11.335 10.4925 11.29L7.10253 6.205C6.90003 5.8975 6.78753 5.5375 6.78753 5.1625V1.75H5.25753Z" fill="currentColor"/>
</svg>