<svg width="16" height="14" viewBox="0 0 16 14" fill="none" xmlns="http://www.w3.org/2000/svg">
<path d="M8.00384 7.75731L8.0075 7.75732H8L8.00384 7.75731Z" fill="currentColor"/>
<path d="M8.00732 4.00732C8.42154 4.00732 8.75732 3.67154 8.75732 3.25732C8.75732 2.84311 8.42154 2.50732 8.00732 2.50732C7.59311 2.50732 7.25732 2.84311 7.25732 3.25732C7.25732 3.67154 7.59311 4.00732 8.00732 4.00732Z" fill="currentColor"/>
<path fill-rule="evenodd" clip-rule="evenodd" d="M8.5325 7.53982C8.3909 7.68142 8.20487 7.75637 8.00384 7.75731C7.80274 7.75633 7.61664 7.67401 7.475 7.53982C7.22 7.28482 5 5.01982 5 3.25732C5 1.59982 6.35 0.257324 8 0.257324C9.65 0.257324 11 1.60732 11 3.25732C11 4.99985 8.83002 7.23356 8.54167 7.53039L8.5325 7.53982ZM6.5075 3.24982C6.5075 2.42482 7.1825 1.74982 8.0075 1.74982C8.8325 1.74982 9.5075 2.42482 9.5075 3.24982C9.5075 3.90232 8.7425 5.03482 8.0075 5.89732C7.2725 5.03482 6.5075 3.90232 6.5075 3.24982Z" fill="currentColor"/>
<path d="M3.49287 13.765L3.50018 13.765H3.48518L3.49287 13.765Z" fill="currentColor"/>
<path d="M4.25 9.25732C4.25 9.67154 3.91421 10.0073 3.5 10.0073C3.08579 10.0073 2.75 9.67154 2.75 9.25732C2.75 8.84311 3.08579 8.50732 3.5 8.50732C3.91421 8.50732 4.25 8.84311 4.25 9.25732Z" fill="currentColor"/>
<path fill-rule="evenodd" clip-rule="evenodd" d="M4.01768 13.5475C3.86965 13.6955 3.6851 13.7632 3.49287 13.765C3.3005 13.7631 3.1158 13.6882 2.96768 13.5475C2.71268 13.2925 0.492676 11.0275 0.492676 9.26501C0.492676 7.60751 1.84268 6.26501 3.49268 6.26501C5.14268 6.26501 6.49268 7.60751 6.49268 9.26501C6.49268 11.0275 4.27268 13.2925 4.01768 13.5475ZM2.00018 9.25751C2.00018 8.43251 2.67518 7.75751 3.50018 7.75751C4.32518 7.75751 5.00018 8.43251 5.00018 9.25751C5.00018 9.91751 4.23518 11.0425 3.50018 11.905C2.76518 11.0425 2.00018 9.91751 2.00018 9.25751Z" fill="currentColor"/>
<path d="M13.2573 9.25732C13.2573 9.67154 12.9215 10.0073 12.5073 10.0073C12.0931 10.0073 11.7573 9.67154 11.7573 9.25732C11.7573 8.84311 12.0931 8.50732 12.5073 8.50732C12.9215 8.50732 13.2573 8.84311 13.2573 9.25732Z" fill="currentColor"/>
<path fill-rule="evenodd" clip-rule="evenodd" d="M12.5075 13.765L12.5039 13.765C12.6975 13.7641 12.8835 13.6965 13.0325 13.5475L13.0417 13.5381C13.33 13.2412 15.5 11.0075 15.5 9.265C15.5 7.6075 14.15 6.265 12.5 6.265C10.85 6.265 9.5 7.6075 9.5 9.265C9.5 11.0275 11.72 13.2925 11.975 13.5475C12.1241 13.6891 12.3102 13.7641 12.5039 13.765L12.5 13.765H12.5075ZM12.5075 7.7575C11.6825 7.7575 11.0075 8.4325 11.0075 9.2575C11.0075 9.9175 11.7725 11.0425 12.5075 11.905C13.2425 11.0425 14.0075 9.9175 14.0075 9.2575C14.0075 8.4325 13.3325 7.7575 12.5075 7.7575Z" fill="currentColor"/>
</svg>