<svg width="10" height="16" viewBox="0 0 10 16" fill="none" xmlns="http://www.w3.org/2000/svg">
<path fill-rule="evenodd" clip-rule="evenodd" d="M9.44 14.75L9.43999 14.7426C9.44033 14.7169 9.44016 14.681 9.43855 14.6351C9.4287 14.2453 9.36888 13.8679 9.26526 13.509C9.15432 13.05 8.97401 12.4716 8.68177 11.78H8.68982C9.10232 11.78 9.43982 11.4425 9.43982 11.03C9.43982 10.6175 9.10232 10.28 8.68982 10.28H7.95298C7.81631 10.0297 7.66712 9.76954 7.50428 9.49982C7.23177 9.04843 7.00095 8.54477 6.80547 8.01501H7.2207C7.6332 8.01501 7.9707 7.67752 7.9707 7.26501C7.9707 6.85251 7.6332 6.51501 7.2207 6.51501H6.35264C6.16087 5.73241 6.02764 4.94558 5.93516 4.22766H6.0957C6.5082 4.22766 6.8457 3.89016 6.8457 3.47766C6.8457 3.06516 6.5082 2.72766 6.0957 2.72766H5.78604C5.7333 1.98436 5.72678 1.45481 5.72678 1.30232V1.24982C5.72678 0.837324 5.38928 0.507324 4.97678 0.507324C4.56428 0.507324 4.22678 0.837324 4.22678 1.24982V1.30232C4.22458 1.45472 4.21651 1.98436 4.16314 2.72766H3.8457C3.4332 2.72766 3.0957 3.06516 3.0957 3.47766C3.0957 3.89016 3.4332 4.22766 3.8457 4.22766H4.01391C3.92181 4.94574 3.78955 5.73265 3.59945 6.51501H2.7207C2.3082 6.51501 1.9707 6.85251 1.9707 7.26501C1.9707 7.67752 2.3082 8.01501 2.7207 8.01501H3.15045C2.95643 8.54518 2.72733 9.04891 2.45678 9.49982C2.2952 9.76996 2.14695 10.03 2.01094 10.28H1.25732C0.844824 10.28 0.507324 10.6175 0.507324 11.03C0.507324 11.4425 0.844824 11.78 1.25732 11.78H1.28039C1.02762 12.3728 0.856848 12.88 0.741664 13.3002C0.58504 13.7552 0.5 14.2431 0.5 14.75C0.5 15.1625 0.8375 15.5 1.25 15.5C1.6625 15.5 2 15.1625 2 14.75C2 14.7292 2.00021 14.7085 2.00064 14.6878C2.0061 14.5823 2.03362 14.2666 2.17198 13.7501C2.58034 12.6047 3.67102 11.7856 4.95679 11.78H4.98317C6.29014 11.7857 7.39554 12.6367 7.78764 13.8098C7.93498 14.397 7.93928 14.7151 7.93928 14.7348C7.93308 15.0762 8.15284 15.3662 8.46258 15.4645C8.515 15.4813 8.56989 15.4925 8.62651 15.4973C8.63984 15.4985 8.65326 15.4993 8.66678 15.4998H8.6737L8.69 15.5C9.1025 15.5 9.44 15.1625 9.44 14.75ZM6.21428 10.2723C5.80035 9.58989 5.47402 8.81567 5.21664 8.01501H4.73693C4.47954 8.81567 4.15322 9.58989 3.73928 10.2723L3.73467 10.28H4.95388L4.97 10.28L4.98615 10.28H6.21895L6.21428 10.2723Z" fill="currentColor"/>
</svg>