<svg width="14" height="15" viewBox="0 0 14 15" fill="none" xmlns="http://www.w3.org/2000/svg">
<path fill-rule="evenodd" clip-rule="evenodd" d="M5.23855 5.09802C4.61443 4.39307 4 3.10712 4 1.25C4 0.8375 3.6625 0.5 3.25 0.5C2.8375 0.5 2.5 0.8375 2.5 1.25C2.5 3.33877 3.19253 5.05311 4.12388 6.1067C2.3965 5.57969 1.70388 4.69307 1.62117 4.5872L1.61549 4.57996C1.38299 4.24246 0.917989 4.15246 0.580489 4.37746C0.235489 4.60996 0.145489 5.07496 0.370489 5.41996C0.413472 5.48683 1.12246 6.51773 2.88283 7.2578C1.13011 7.99494 0.421065 9.01793 0.378197 9.08759C0.153196 9.43259 0.243196 9.89009 0.580697 10.1226C0.918197 10.3551 1.3832 10.2651 1.6232 9.92759C1.66014 9.87482 2.33574 8.94574 4.1203 8.39966C2.86885 9.6357 1.75 11.7311 1.75 14C1.75 14.4125 2.0875 14.75 2.5 14.75C2.9125 14.75 3.25 14.4125 3.25 14C3.25 12.9107 3.57233 11.8962 4.01326 11.0549C4.00449 11.1603 4 11.267 4 11.375C4 13.2425 5.3425 14.75 7 14.75C8.6575 14.75 10 13.2425 10 11.375C10 11.267 9.99551 11.1603 9.98674 11.0549C10.4277 11.8962 10.75 12.9107 10.75 14C10.75 14.4125 11.0875 14.75 11.5 14.75C11.9125 14.75 12.25 14.4125 12.25 14C12.25 11.7239 11.1241 9.62249 9.86786 8.388C11.6532 8.93041 12.3352 9.85671 12.3775 9.92009C12.52 10.1301 12.76 10.2501 13 10.2501C13.1425 10.2501 13.285 10.2126 13.4125 10.1226C13.7575 9.89009 13.8475 9.42509 13.6225 9.08009V9.08759C13.5795 9.01774 12.8668 7.98942 11.1037 7.25184C12.8634 6.51337 13.5722 5.48409 13.6152 5.41246C13.8402 5.06746 13.7502 4.60996 13.4127 4.37746L13.4202 4.38496C13.0827 4.15246 12.6177 4.24246 12.3777 4.57996C12.341 4.6349 11.6634 5.55946 9.88358 6.10378C10.8129 5.05146 11.5001 3.3407 11.5001 1.25C11.5001 0.8375 11.1626 0.5 10.7501 0.5C10.3376 0.5 10.0001 0.8375 10.0001 1.25C10.0001 3.10844 9.38475 4.39058 8.76017 5.09641C8.34831 4.58015 7.71358 4.25 7 4.25C6.28568 4.25 5.65037 4.58084 5.23855 5.09802ZM7 7.25C7.4125 7.25 7.75 6.9125 7.75 6.5C7.75 6.0875 7.4125 5.75 7 5.75C6.5875 5.75 6.25 6.0875 6.25 6.5C6.25 6.9125 6.5875 7.25 7 7.25ZM7 9.5C7.825 9.5 8.5 10.34 8.5 11.375C8.5 12.41 7.825 13.25 7 13.25C6.175 13.25 5.5 12.41 5.5 11.375C5.5 10.34 6.175 9.5 7 9.5Z" fill="currentColor"/>
</svg>