<svg width="16" height="16" viewBox="0 0 16 16" fill="none" xmlns="http://www.w3.org/2000/svg">
<path fill-rule="evenodd" clip-rule="evenodd" d="M0.5 8C0.5 8.08071 0.501285 8.16113 0.503834 8.24124C0.562689 10.0942 1.29823 11.8381 2.585 13.1824C3.95162 14.6098 5.87464 15.5 8 15.5C10.1251 15.5 12.048 14.6095 13.4146 13.1823L13.4146 13.1974C14.7161 11.8305 15.4537 10.0619 15.4976 8.19212C15.4992 8.12827 15.5 8.06423 15.5 8C15.5 3.8675 12.1325 0.5 8 0.5C5.87484 0.5 3.95199 1.39056 2.58539 2.81775C2.53221 2.87361 2.47958 2.92975 2.42829 2.9869C1.99358 3.4695 1.62043 4.00858 1.32141 4.59156C0.785106 5.63569 0.5 6.79631 0.5 8ZM7.25 13.9533C5.84732 13.7775 4.59338 13.1153 3.66302 12.1414L3.66466 12.1398C3.8208 12.305 3.98592 12.4609 4.16 12.6049C5.03349 11.4891 5.57093 10.1565 5.71242 8.75H7.25V13.9533ZM8.75 13.9533C10.1488 13.778 11.3997 13.1189 12.3293 12.1494L12.3271 12.1474C12.4893 11.9773 12.6406 11.7992 12.7804 11.6142C12.5031 11.977 12.1896 12.309 11.84 12.6049C10.9665 11.4891 10.4291 10.1565 10.2876 8.75H8.75V13.9533ZM12.8744 11.4865C13.4553 10.6749 13.823 9.73771 13.9461 8.75H11.7973C11.9223 9.73793 12.2929 10.6769 12.8744 11.4865ZM13.9443 7.25C13.8189 6.26469 13.4501 5.33008 12.869 4.52076C12.2906 5.32871 11.9219 6.26505 11.7972 7.25H13.9443ZM12.3352 3.85976L12.3367 3.8583C11.4064 2.88461 10.1525 2.22247 8.75 2.04667V7.25H10.2876C10.429 5.84338 10.9665 4.51072 11.84 3.3949C12.014 3.53879 12.1791 3.69464 12.3352 3.85976ZM7.25 2.04667V7.25H5.71244C5.57098 5.84338 5.03353 4.51072 4.16 3.3949C3.7972 3.70188 3.47335 4.0478 3.18843 4.42663C3.33681 4.22689 3.49832 4.03509 3.6725 3.85238L3.67065 3.85062C4.60024 2.88112 5.85116 2.22201 7.25 2.04667ZM3.12544 4.51301C2.54435 5.32477 2.17661 6.26211 2.05349 7.25H4.20277C4.07769 6.26189 3.70708 5.32272 3.12544 4.51301ZM2.05541 8.75C2.18079 9.73534 2.54962 10.67 3.13083 11.4793C3.70933 10.6713 4.07803 9.73498 4.20274 8.75H2.05541Z" fill="currentColor"/>
</svg>