<svg width="13" height="16" viewBox="0 0 13 16" fill="none" xmlns="http://www.w3.org/2000/svg">
<path d="M3 5H9C9.4125 5 9.75 4.6625 9.75 4.25C9.75 3.8375 9.4125 3.5 9 3.5H3C2.5875 3.5 2.25 3.8375 2.25 4.25C2.25 4.6625 2.5875 5 3 5Z" fill="currentColor"/>
<path fill-rule="evenodd" clip-rule="evenodd" d="M4.5 14H11.25C11.6625 14 12 13.6625 12 13.25V11.0985C12.0049 11.0639 12.0075 11.0286 12.0075 10.9927C12.0075 10.9568 12.0049 10.9214 12 10.8868V1.25C12 0.8375 11.6625 0.5 11.25 0.5H1.5375C0.69 0.5 0 1.1825 0 2.03V12.47C0 13.31 0.6825 14 1.53 14H3V14.75C3 15.1625 3.3375 15.5 3.75 15.5C4.1625 15.5 4.5 15.1625 4.5 14.75V14ZM4.5 12.5H10.5V11.7427H4.5V12.5ZM3 12.5V11.7427H1.53C1.53 11.8115 1.52018 11.8787 1.50189 11.9429L1.5 12.47C1.5 12.47 1.515 12.5 1.53 12.5H3ZM1.5375 10.2427H10.5V2H1.5375L1.50798 10.2429C1.5178 10.2428 1.52764 10.2427 1.5375 10.2427Z" fill="currentColor"/>
</svg>