<svg width="14" height="12" viewBox="0 0 14 12" fill="none" xmlns="http://www.w3.org/2000/svg">
<path fill-rule="evenodd" clip-rule="evenodd" d="M3.4382 4.62747C4.0982 5.28747 4.8782 5.62497 5.6057 5.62497L5.6132 5.61747C5.8316 5.61747 6.04548 5.58694 6.25 5.52501V6.75H4.79928C4.76398 6.7475 4.72852 6.7475 4.69322 6.75H3.99268C3.85018 6.75 3.70018 6.795 3.58018 6.8775L1.51768 8.25H0.992676C0.580176 8.25 0.242676 8.5875 0.242676 9V10.5C0.242676 10.9125 0.580176 11.25 0.992676 11.25H1.62268L3.76018 11.9625C3.84268 11.985 3.91768 12 4.00018 12H7.75018L7.73518 11.985C7.87018 11.985 7.99768 11.955 8.11018 11.8875L13.3602 8.8875C13.7052 8.6925 13.8402 8.2575 13.6602 7.905C13.4802 7.5525 13.0527 7.395 12.6927 7.5525L7.58518 9.7425H4.3L3.9925 9.435V9.3075L5.05 8.25H7.74268C8.15518 8.25 8.49268 7.9125 8.49268 7.5C8.49268 7.08994 8.15916 6.754 7.75 6.75004V5.53038C7.95683 5.59387 8.1733 5.62516 8.39441 5.62516L8.40191 5.63266C9.12941 5.63266 9.90941 5.29516 10.5694 4.63516C11.4919 3.71266 11.5369 1.51516 11.5369 1.10266C11.5369 0.690161 11.2144 0.352661 10.7869 0.352661C10.3594 0.352661 8.17691 0.397661 7.25441 1.32016C7.19362 1.38056 7.13555 1.44198 7.08021 1.50429C7.05384 1.50145 7.02708 1.5 7 1.5C6.97715 1.5 6.95453 1.50104 6.93218 1.50306C6.87541 1.43859 6.81575 1.37501 6.7532 1.31247C5.8307 0.389971 3.6332 0.344971 3.2207 0.344971C2.8082 0.344971 2.4707 0.667471 2.4707 1.09497C2.4707 1.52247 2.5157 3.70497 3.4382 4.62747ZM7.75264 3.57422C7.75552 3.50613 7.75535 3.4375 7.75215 3.36847C7.79954 2.98736 8.09225 2.58981 8.3119 2.37016C8.5594 2.13016 9.28691 1.96516 9.9844 1.89016C9.9094 2.58766 9.75191 3.31516 9.50441 3.56266C9.16691 3.90016 8.40941 4.41016 7.9369 3.93766C7.82802 3.82877 7.77131 3.70475 7.75264 3.57422ZM6.25 3.38612C6.20973 2.99963 5.91129 2.59305 5.6882 2.36997C5.4407 2.12247 4.7132 1.96497 4.0157 1.88997C4.0907 2.58747 4.2557 3.31497 4.4957 3.56247C4.8332 3.89997 5.5907 4.40997 6.0632 3.93747C6.17757 3.8231 6.23438 3.69203 6.25 3.55427V3.38612Z" fill="currentColor"/>
</svg>