<svg width="16" height="15" viewBox="0 0 16 15" fill="none" xmlns="http://www.w3.org/2000/svg">
<path fill-rule="evenodd" clip-rule="evenodd" d="M11 6.15558C9.70573 5.82276 8.75 4.6485 8.75 3.25C8.75 1.5925 10.0925 0.25 11.75 0.25C13.4075 0.25 14.75 1.5925 14.75 3.25C14.75 4.6485 13.7943 5.82276 12.5 6.15558V7.75C12.5 8.1625 12.1625 8.5 11.75 8.5C11.3375 8.5 11 8.1625 11 7.75V6.15558ZM12.5 4.54769V4C12.5 3.5875 12.1625 3.25 11.75 3.25C11.3375 3.25 11 3.5875 11 4V4.54769C10.5525 4.28735 10.25 3.80229 10.25 3.25C10.25 2.425 10.925 1.75 11.75 1.75C12.575 1.75 13.25 2.425 13.25 3.25C13.25 3.80229 12.9475 4.28735 12.5 4.54769Z" fill="currentColor"/>
<path fill-rule="evenodd" clip-rule="evenodd" d="M5 10.4165C6.76769 12.5095 7.28153 13.9639 7.28773 13.9825C7.39273 14.2975 7.68523 14.4925 8.00023 14.4925C8.07523 14.4925 8.15773 14.4775 8.24023 14.455C8.63023 14.3275 8.84773 13.9 8.71273 13.51C8.68488 13.4194 8.03616 11.5439 5.71561 8.95245C6.2333 8.73222 6.69144 8.39892 7.05897 7.98361C7.77036 8.40271 8.67724 8.99822 9.80721 9.84987C12.6572 11.9874 14.1197 14.1474 14.1347 14.1699C14.3672 14.5149 14.8322 14.6049 15.1772 14.3799C15.5222 14.1474 15.6122 13.6824 15.3872 13.3374H15.3722L15.3662 13.3287C15.2413 13.1465 13.7046 10.9054 10.6997 8.64987C9.53161 7.77237 8.57996 7.14163 7.80859 6.68528C7.93275 6.31269 8 5.91415 8 5.5C8 3.43 6.32 1.75 4.25 1.75C2.18 1.75 0.5 3.43 0.5 5.5C0.5 7.31318 1.78899 8.82712 3.5 9.17488V12.2502C3.5 12.6627 3.8375 13.0002 4.25 13.0002C4.6625 13.0002 5 12.6627 5 12.2502V10.4165ZM3.5 7.62071V6.24268C3.5 5.83018 3.8375 5.49268 4.25 5.49268C4.6625 5.49268 5 5.83018 5 6.24268V7.62071C5.87167 7.31008 6.5 6.47486 6.5 5.5C6.5 4.2625 5.4875 3.25 4.25 3.25C3.0125 3.25 2 4.2625 2 5.5C2 6.47486 2.62833 7.31008 3.5 7.62071Z" fill="currentColor"/>
</svg>