<svg width="16" height="16" viewBox="0 0 16 16" fill="none" xmlns="http://www.w3.org/2000/svg">
<path d="M4.82732 15.5001C4.54982 15.5001 4.27982 15.3951 4.06982 15.1851C4.04732 15.1626 4.02482 15.1401 4.00982 15.1176L2.93732 13.7526L2.25482 13.0701L0.889824 11.9976C0.889824 11.9976 0.844824 11.9601 0.822324 11.9376C0.619824 11.7351 0.507324 11.4651 0.507324 11.1801C0.507324 10.8951 0.619824 10.6251 0.822324 10.4226L2.15732 9.08764C2.51732 8.72764 3.07982 8.65264 3.52232 8.92264L4.07732 9.26764C4.13732 9.19264 4.19732 9.11014 4.25732 9.02764C4.83482 8.28514 5.50982 7.40014 6.13982 6.65014L2.79482 4.31764C2.79482 4.31764 2.72732 4.26514 2.69732 4.23514C2.49482 4.03264 2.38232 3.76264 2.38232 3.47764C2.38232 3.19264 2.49482 2.92264 2.69732 2.72014L4.09982 1.31764C4.45982 0.957639 5.01482 0.890139 5.44232 1.14514L10.0698 2.66764L11.2473 1.59514C11.7798 1.06264 12.4473 0.695139 13.1148 0.590139C13.8273 0.470139 14.4948 0.650139 14.9298 1.09264C15.7998 1.96264 15.5298 3.59014 14.3223 4.80514L13.3473 5.94514L14.8773 10.5876C15.1323 11.0151 15.0648 11.5701 14.7048 11.9301L13.3023 13.3326C12.8973 13.7376 12.1848 13.7376 11.7798 13.3326C11.7498 13.3026 11.7198 13.2651 11.6973 13.2276L9.36482 9.88264C8.61482 10.5051 7.73732 11.1876 7.00232 11.7576C6.91982 11.8251 6.82982 11.8851 6.74732 11.9526L7.08482 12.5001C7.35482 12.9501 7.28732 13.5126 6.91982 13.8726L5.58482 15.2076C5.37482 15.4176 5.09732 15.5226 4.82732 15.5226V15.5001ZM2.21732 11.1351L3.21482 11.9151C3.21482 11.9151 3.25982 11.9526 3.28232 11.9751L4.03232 12.7251C4.03232 12.7251 4.07732 12.7701 4.09232 12.7926L4.87232 13.7901L5.65232 13.0101L5.11982 12.1551C4.91732 11.8326 4.99232 11.4051 5.29232 11.1726C5.51732 10.9926 5.78732 10.7826 6.08732 10.5576C7.03232 9.83014 8.20982 8.91514 9.01232 8.20264C9.16982 8.06014 9.37982 7.99264 9.59732 8.01514C9.80732 8.03764 10.0023 8.15764 10.1223 8.33014L12.6048 11.8926L13.4598 11.0376L11.7948 5.99014C11.7123 5.74264 11.7648 5.46514 11.9373 5.26264L13.2273 3.76264C13.9923 2.99764 14.0223 2.27764 13.8798 2.12764C13.8123 2.06014 13.6398 2.00014 13.3698 2.04514C13.0098 2.10514 12.6273 2.32264 12.2898 2.66014L10.7673 4.05514C10.5648 4.23514 10.2873 4.29514 10.0248 4.21264L4.97732 2.54764L4.12232 3.40264L7.68482 5.88514C7.86482 6.00514 7.97732 6.20014 7.99982 6.41764C8.02232 6.62764 7.95482 6.84514 7.81232 7.00264C7.09232 7.80514 6.17732 8.99014 5.44982 9.93514C5.22482 10.2201 5.02232 10.4901 4.84982 10.7151C4.61732 11.0151 4.18982 11.0901 3.86732 10.8876L3.01232 10.3551L2.23232 11.1351H2.21732Z" fill="currentColor"/>
</svg>