<svg width="12" height="16" viewBox="0 0 12 16" fill="none" xmlns="http://www.w3.org/2000/svg">
<path d="M9 12.5H3C2.5875 12.5 2.25 12.1625 2.25 11.75C2.25 11.3375 2.5875 11 3 11H9C9.4125 11 9.75 11.3375 9.75 11.75C9.75 12.1625 9.4125 12.5 9 12.5Z" fill="currentColor"/>
<path d="M8.36262 5.3075C8.64012 5.345 8.87262 5.54 8.96262 5.81L8.94762 5.8175C9.03762 6.08 8.96262 6.38 8.76012 6.575L7.91262 7.4L8.11512 8.57C8.16762 8.8475 8.04762 9.1325 7.82262 9.2975C7.69512 9.395 7.53762 9.44 7.38762 9.44C7.26762 9.44 7.15512 9.4175 7.04262 9.3575L5.99262 8.8025L4.94262 9.35C4.69512 9.4775 4.39512 9.455 4.16262 9.29C3.93762 9.125 3.82512 8.84 3.87012 8.5625L4.07262 7.3925L3.22512 6.5675C3.02262 6.3725 2.94762 6.08 3.03762 5.81C3.12762 5.5475 3.36012 5.345 3.63762 5.3075L4.80762 5.135L5.33262 4.07C5.58012 3.56 6.41262 3.56 6.66012 4.07L7.18512 5.135L8.36262 5.3075Z" fill="currentColor"/>
<path fill-rule="evenodd" clip-rule="evenodd" d="M11.25 15.5H0.75C0.3375 15.5 0 15.1625 0 14.75V1.25C0 0.8375 0.3375 0.5 0.75 0.5H11.25C11.6625 0.5 12 0.8375 12 1.25V14.75C12 15.1625 11.6625 15.5 11.25 15.5ZM1.5 14H10.5V2H1.5V14Z" fill="currentColor"/>
</svg>