<svg width="9" height="13" viewBox="0 0 9 13" fill="none" xmlns="http://www.w3.org/2000/svg">
<path d="M7.25 1.125C7.25 1.74632 6.74632 2.25 6.125 2.25C5.50368 2.25 5 1.74632 5 1.125C5 0.50368 5.50368 0 6.125 0C6.74632 0 7.25 0.50368 7.25 1.125Z" fill="currentColor"/>
<path d="M6.52227 12.18C6.60477 12.525 6.91227 12.75 7.24977 12.75L7.26478 12.7575C7.32477 12.7575 7.38478 12.75 7.44477 12.735C7.84977 12.6375 8.08977 12.2325 7.99227 11.8275L7.24227 8.81251C7.21227 8.67751 7.14477 8.55751 7.04727 8.46001L5.08227 6.49501L5.39727 4.91251L5.89227 5.65501C5.95977 5.76001 6.05727 5.85001 6.17727 5.91001L7.67727 6.66001C8.04478 6.84001 8.49477 6.69751 8.68227 6.32251C8.86228 5.95501 8.71227 5.50501 8.34477 5.31751L7.02477 4.65751L5.63727 2.57251C5.46477 2.31751 5.16477 2.19001 4.86477 2.25001C4.854 2.25216 4.84331 2.25454 4.83272 2.25713C4.80601 2.26317 4.77938 2.27074 4.75291 2.2799L2.52541 3.0299C2.42041 3.0674 2.32291 3.1274 2.24041 3.2099L0.71791 4.7174C0.42541 5.0099 0.42541 5.4824 0.71791 5.7749C0.86791 5.9249 1.05541 5.9999 1.25041 5.9999V6.0074C1.43791 6.0074 1.62541 5.9324 1.77541 5.7899L3.17041 4.4024L4.0176 4.1159L3.5438 6.48488C3.51588 6.56319 3.50066 6.6474 3.50066 6.73499V8.48843L3.25179 9.0708L1.40066 11.55C1.15316 11.88 1.22066 12.3525 1.55066 12.6C1.68566 12.705 1.84316 12.75 2.00066 12.75C2.22566 12.75 2.45066 12.645 2.60066 12.45L4.85066 9.43499C4.94816 9.30749 5.00066 9.14998 5.00066 8.98499V8.5434L5.82477 9.36751L6.52227 12.18Z" fill="currentColor"/>
</svg>