<svg width="16" height="16" viewBox="0 0 16 16" fill="none" xmlns="http://www.w3.org/2000/svg">
<path d="M5.75 4.25C5.75 4.66421 5.41421 5 5 5C4.58579 5 4.25 4.66421 4.25 4.25C4.25 3.83579 4.58579 3.5 5 3.5C5.41421 3.5 5.75 3.83579 5.75 4.25Z" fill="currentColor"/>
<path fill-rule="evenodd" clip-rule="evenodd" d="M14.9116 11.5008L15.327 12.0425C15.4995 12.2675 15.5295 12.575 15.402 12.83C15.2745 13.0925 15.012 13.25 14.727 13.25H9.49954V14.75C9.49954 15.1625 9.16204 15.5 8.74954 15.5C8.33704 15.5 7.99954 15.1625 7.99954 14.75V13.0925C4.57954 12.3875 1.99954 9.35 1.99954 5.7275V5H0.934542C0.769542 5 0.694543 4.805 0.807042 4.6925L1.99954 3.5C1.99954 1.8425 3.34204 0.5 4.99954 0.5C5.85454 0.5 6.67204 0.875 7.24204 1.5275C7.35028 1.64295 11.374 6.8888 14.9116 11.5008ZM3.49954 5.7275C3.49954 9.05 6.19954 11.75 9.52204 11.75H13.212C12.4044 10.6978 11.4861 9.50078 10.584 8.32476C8.38667 5.46028 6.28501 2.7205 6.10954 2.5025C5.81704 2.18 5.42704 2 4.99954 2C4.17454 2 3.49954 2.675 3.49954 3.5V5.7275Z" fill="currentColor"/>
</svg>