<?xml version="1.0" standalone="no"?>
<svg xmlns="http://www.w3.org/2000/svg" width="1260" height="1260"><defs><clipPath id="clip-path-dot-color"><path d="M 3 345v 38h 19a 19 19, 0, 0, 0, 0 -38" transform="rotate(180,22,364)"/><path d="M 3 421v 38h 19a 19 19, 0, 0, 0, 0 -38" transform="rotate(180,22,440)"/><path d="M 3 497v 38h 38a 38 38, 0, 0, 0, -38 -38" transform="rotate(-90,22,516)"/><rect x="3" y="535" width="38" height="38" transform="rotate(0,22,554)"/><path d="M 3 573v 38h 38a 38 38, 0, 0, 0, -38 -38" transform="rotate(180,22,592)"/><path d="M 3 649v 38h 19a 19 19, 0, 0, 0, 0 -38" transform="rotate(-90,22,668)"/><path d="M 3 687v 38h 19a 19 19, 0, 0, 0, 0 -38" transform="rotate(90,22,706)"/><path d="M 3 801v 38h 19a 19 19, 0, 0, 0, 0 -38" transform="rotate(-90,22,820)"/><path d="M 3 839v 38h 19a 19 19, 0, 0, 0, 0 -38" transform="rotate(90,22,858)"/><rect x="41" y="345" width="38" height="38" transform="rotate(0,60,364)"/><path d="M 41 421v 38h 38a 38 38, 0, 0, 0, -38 -38" transform="rotate(0,60,440)"/><rect x="41" y="459" width="38" height="38" transform="rotate(0,60,478)"/><rect x="41" y="497" width="38" height="38" transform="rotate(0,60,516)"/><rect x="41" y="535" width="38" height="38" transform="rotate(0,60,554)"/><rect x="41" y="573" width="38" height="38" transform="rotate(0,60,592)"/><path d="M 79 345v 38h 19a 19 19, 0, 0, 0, 0 -38" transform="rotate(0,98,364)"/><path d="M 79 459v 38h 38a 38 38, 0, 0, 0, -38 -38" transform="rotate(0,98,478)"/><rect x="79" y="497" width="38" height="38" transform="rotate(0,98,516)"/><path d="M 79 573v 38h 19a 19 19, 0, 0, 0, 0 -38" transform="rotate(0,98,592)"/><circle cx="98" cy="668" r="19" transform="rotate(0,98,668)"/><path d="M 79 725v 38h 38a 38 38, 0, 0, 0, -38 -38" transform="rotate(-90,98,744)"/><rect x="79" y="763" width="38" height="38" transform="rotate(0,98,782)"/><rect x="79" y="801" width="38" height="38" transform="rotate(0,98,820)"/><path d="M 79 839v 38h 38a 38 38, 0, 0, 0, -38 -38" transform="rotate(180,98,858)"/><circle cx="136" cy="326" r="19" transform="rotate(0,136,326)"/><path d="M 117 421v 38h 19a 19 19, 0, 0, 0, 0 -38" transform="rotate(180,136,440)"/><path d="M 117 497v 38h 38a 38 38, 0, 0, 0, -38 -38" transform="rotate(0,136,516)"/><path d="M 117 535v 38h 19a 19 19, 0, 0, 0, 0 -38" transform="rotate(90,136,554)"/><rect x="117" y="725" width="38" height="38" transform="rotate(0,136,744)"/><rect x="117" y="801" width="38" height="38" transform="rotate(0,136,820)"/><rect x="117" y="839" width="38" height="38" transform="rotate(0,136,858)"/><rect x="117" y="877" width="38" height="38" transform="rotate(0,136,896)"/><path d="M 117 915v 38h 19a 19 19, 0, 0, 0, 0 -38" transform="rotate(90,136,934)"/><path d="M 155 345v 38h 19a 19 19, 0, 0, 0, 0 -38" transform="rotate(-90,174,364)"/><rect x="155" y="383" width="38" height="38" transform="rotate(0,174,402)"/><path d="M 155 421v 38h 38a 38 38, 0, 0, 0, -38 -38" transform="rotate(90,174,440)"/><circle cx="174" cy="668" r="19" transform="rotate(0,174,668)"/><rect x="155" y="725" width="38" height="38" transform="rotate(0,174,744)"/><path d="M 155 801v 38h 19a 19 19, 0, 0, 0, 0 -38" transform="rotate(0,174,820)"/><path d="M 193 307v 38h 19a 19 19, 0, 0, 0, 0 -38" transform="rotate(180,212,326)"/><rect x="193" y="383" width="38" height="38" transform="rotate(0,212,402)"/><path d="M 193 459v 38h 38a 38 38, 0, 0, 0, -38 -38" transform="rotate(-90,212,478)"/><rect x="193" y="497" width="38" height="38" transform="rotate(0,212,516)"/><rect x="193" y="535" width="38" height="38" transform="rotate(0,212,554)"/><path d="M 193 573v 38h 19a 19 19, 0, 0, 0, 0 -38" transform="rotate(90,212,592)"/><path d="M 193 687v 38h 38a 38 38, 0, 0, 0, -38 -38" transform="rotate(-90,212,706)"/><path d="M 193 725v 38h 38a 38 38, 0, 0, 0, -38 -38" transform="rotate(90,212,744)"/><path d="M 193 839v 38h 19a 19 19, 0, 0, 0, 0 -38" transform="rotate(180,212,858)"/><path d="M 193 915v 38h 19a 19 19, 0, 0, 0, 0 -38" transform="rotate(180,212,934)"/><rect x="231" y="307" width="38" height="38" transform="rotate(0,250,326)"/><path d="M 231 383v 38h 19a 19 19, 0, 0, 0, 0 -38" transform="rotate(0,250,402)"/><path d="M 231 459v 38h 19a 19 19, 0, 0, 0, 0 -38" transform="rotate(0,250,478)"/><rect x="231" y="535" width="38" height="38" transform="rotate(0,250,554)"/><circle cx="250" cy="630" r="19" transform="rotate(0,250,630)"/><rect x="231" y="687" width="38" height="38" transform="rotate(0,250,706)"/><path d="M 231 763v 38h 19a 19 19, 0, 0, 0, 0 -38" transform="rotate(180,250,782)"/><path d="M 231 839v 38h 19a 19 19, 0, 0, 0, 0 -38" transform="rotate(0,250,858)"/><rect x="231" y="915" width="38" height="38" transform="rotate(0,250,934)"/><path d="M 269 307v 38h 19a 19 19, 0, 0, 0, 0 -38" transform="rotate(0,288,326)"/><circle cx="288" cy="440" r="19" transform="rotate(0,288,440)"/><path d="M 269 497v 38h 38a 38 38, 0, 0, 0, -38 -38" transform="rotate(-90,288,516)"/><path d="M 269 535v 38h 38a 38 38, 0, 0, 0, -38 -38" transform="rotate(90,288,554)"/><path d="M 269 687v 38h 38a 38 38, 0, 0, 0, -38 -38" transform="rotate(0,288,706)"/><rect x="269" y="725" width="38" height="38" transform="rotate(0,288,744)"/><rect x="269" y="763" width="38" height="38" transform="rotate(0,288,782)"/><path d="M 269 877v 38h 19a 19 19, 0, 0, 0, 0 -38" transform="rotate(-90,288,896)"/><rect x="269" y="915" width="38" height="38" transform="rotate(0,288,934)"/><path d="M 307 41v 38h 38a 38 38, 0, 0, 0, -38 -38" transform="rotate(-90,326,60)"/><path d="M 307 79v 38h 38a 38 38, 0, 0, 0, -38 -38" transform="rotate(180,326,98)"/><circle cx="326" cy="250" r="19" transform="rotate(0,326,250)"/><circle cx="326" cy="364" r="19" transform="rotate(0,326,364)"/><path d="M 307 459v 38h 38a 38 38, 0, 0, 0, -38 -38" transform="rotate(-90,326,478)"/><rect x="307" y="497" width="38" height="38" transform="rotate(0,326,516)"/><path d="M 307 573v 38h 38a 38 38, 0, 0, 0, -38 -38" transform="rotate(-90,326,592)"/><path d="M 307 611v 38h 19a 19 19, 0, 0, 0, 0 -38" transform="rotate(90,326,630)"/><rect x="307" y="763" width="38" height="38" transform="rotate(0,326,782)"/><rect x="307" y="915" width="38" height="38" transform="rotate(0,326,934)"/><path d="M 307 991v 38h 38a 38 38, 0, 0, 0, -38 -38" transform="rotate(-90,326,1010)"/><path d="M 307 1029v 38h 19a 19 19, 0, 0, 0, 0 -38" transform="rotate(90,326,1048)"/><path d="M 307 1105v 38h 19a 19 19, 0, 0, 0, 0 -38" transform="rotate(180,326,1124)"/><rect x="345" y="41" width="38" height="38" transform="rotate(0,364,60)"/><rect x="345" y="79" width="38" height="38" transform="rotate(0,364,98)"/><path d="M 345 117v 38h 19a 19 19, 0, 0, 0, 0 -38" transform="rotate(90,364,136)"/><path d="M 345 307v 38h 19a 19 19, 0, 0, 0, 0 -38" transform="rotate(180,364,326)"/><path d="M 345 421v 38h 38a 38 38, 0, 0, 0, -38 -38" transform="rotate(-90,364,440)"/><rect x="345" y="459" width="38" height="38" transform="rotate(0,364,478)"/><rect x="345" y="497" width="38" height="38" transform="rotate(0,364,516)"/><rect x="345" y="535" width="38" height="38" transform="rotate(0,364,554)"/><rect x="345" y="573" width="38" height="38" transform="rotate(0,364,592)"/><path d="M 345 649v 38h 19a 19 19, 0, 0, 0, 0 -38" transform="rotate(-90,364,668)"/><rect x="345" y="687" width="38" height="38" transform="rotate(0,364,706)"/><rect x="345" y="725" width="38" height="38" transform="rotate(0,364,744)"/><path d="M 345 763v 38h 38a 38 38, 0, 0, 0, -38 -38" transform="rotate(90,364,782)"/><path d="M 345 839v 38h 19a 19 19, 0, 0, 0, 0 -38" transform="rotate(-90,364,858)"/><rect x="345" y="877" width="38" height="38" transform="rotate(0,364,896)"/><path d="M 345 915v 38h 38a 38 38, 0, 0, 0, -38 -38" transform="rotate(90,364,934)"/><rect x="345" y="991" width="38" height="38" transform="rotate(0,364,1010)"/><rect x="345" y="1105" width="38" height="38" transform="rotate(0,364,1124)"/><path d="M 345 1219v 38h 19a 19 19, 0, 0, 0, 0 -38" transform="rotate(180,364,1238)"/><path d="M 383 3v 38h 38a 38 38, 0, 0, 0, -38 -38" transform="rotate(-90,402,22)"/><path d="M 383 41v 38h 38a 38 38, 0, 0, 0, -38 -38" transform="rotate(90,402,60)"/><path d="M 383 155v 38h 19a 19 19, 0, 0, 0, 0 -38" transform="rotate(-90,402,174)"/><rect x="383" y="193" width="38" height="38" transform="rotate(0,402,212)"/><path d="M 383 231v 38h 19a 19 19, 0, 0, 0, 0 -38" transform="rotate(90,402,250)"/><path d="M 383 307v 38h 19a 19 19, 0, 0, 0, 0 -38" transform="rotate(0,402,326)"/><path d="M 383 383v 38h 19a 19 19, 0, 0, 0, 0 -38" transform="rotate(-90,402,402)"/><rect x="383" y="421" width="38" height="38" transform="rotate(0,402,440)"/><path d="M 383 497v 38h 38a 38 38, 0, 0, 0, -38 -38" transform="rotate(0,402,516)"/><rect x="383" y="535" width="38" height="38" transform="rotate(0,402,554)"/><path d="M 383 573v 38h 38a 38 38, 0, 0, 0, -38 -38" transform="rotate(90,402,592)"/><path d="M 383 725v 38h 19a 19 19, 0, 0, 0, 0 -38" transform="rotate(0,402,744)"/><path d="M 383 877v 38h 19a 19 19, 0, 0, 0, 0 -38" transform="rotate(0,402,896)"/><path d="M 383 991v 38h 19a 19 19, 0, 0, 0, 0 -38" transform="rotate(0,402,1010)"/><rect x="383" y="1105" width="38" height="38" transform="rotate(0,402,1124)"/><rect x="383" y="1143" width="38" height="38" transform="rotate(0,402,1162)"/><rect x="383" y="1181" width="38" height="38" transform="rotate(0,402,1200)"/><rect x="383" y="1219" width="38" height="38" transform="rotate(0,402,1238)"/><rect x="421" y="3" width="38" height="38" transform="rotate(0,440,22)"/><path d="M 421 79v 38h 38a 38 38, 0, 0, 0, -38 -38" transform="rotate(-90,440,98)"/><path d="M 421 117v 38h 19a 19 19, 0, 0, 0, 0 -38" transform="rotate(90,440,136)"/><rect x="421" y="193" width="38" height="38" transform="rotate(0,440,212)"/><path d="M 421 269v 38h 19a 19 19, 0, 0, 0, 0 -38" transform="rotate(180,440,288)"/><circle cx="440" cy="364" r="19" transform="rotate(0,440,364)"/><rect x="421" y="421" width="38" height="38" transform="rotate(0,440,440)"/><path d="M 421 459v 38h 38a 38 38, 0, 0, 0, -38 -38" transform="rotate(180,440,478)"/><path d="M 421 649v 38h 19a 19 19, 0, 0, 0, 0 -38" transform="rotate(180,440,668)"/><circle cx="440" cy="782" r="19" transform="rotate(0,440,782)"/><circle cx="440" cy="858" r="19" transform="rotate(0,440,858)"/><path d="M 421 915v 38h 38a 38 38, 0, 0, 0, -38 -38" transform="rotate(-90,440,934)"/><path d="M 421 953v 38h 19a 19 19, 0, 0, 0, 0 -38" transform="rotate(90,440,972)"/><path d="M 421 1029v 38h 19a 19 19, 0, 0, 0, 0 -38" transform="rotate(-90,440,1048)"/><rect x="421" y="1067" width="38" height="38" transform="rotate(0,440,1086)"/><path d="M 421 1105v 38h 38a 38 38, 0, 0, 0, -38 -38" transform="rotate(90,440,1124)"/><path d="M 421 1219v 38h 19a 19 19, 0, 0, 0, 0 -38" transform="rotate(0,440,1238)"/><rect x="459" y="3" width="38" height="38" transform="rotate(0,478,22)"/><rect x="459" y="41" width="38" height="38" transform="rotate(0,478,60)"/><rect x="459" y="79" width="38" height="38" transform="rotate(0,478,98)"/><path d="M 459 155v 38h 19a 19 19, 0, 0, 0, 0 -38" transform="rotate(-90,478,174)"/><rect x="459" y="193" width="38" height="38" transform="rotate(0,478,212)"/><rect x="459" y="231" width="38" height="38" transform="rotate(0,478,250)"/><rect x="459" y="269" width="38" height="38" transform="rotate(0,478,288)"/><path d="M 459 307v 38h 19a 19 19, 0, 0, 0, 0 -38" transform="rotate(90,478,326)"/><path d="M 459 383v 38h 19a 19 19, 0, 0, 0, 0 -38" transform="rotate(-90,478,402)"/><rect x="459" y="421" width="38" height="38" transform="rotate(0,478,440)"/><rect x="459" y="459" width="38" height="38" transform="rotate(0,478,478)"/><rect x="459" y="497" width="38" height="38" transform="rotate(0,478,516)"/><path d="M 459 535v 38h 19a 19 19, 0, 0, 0, 0 -38" transform="rotate(90,478,554)"/><rect x="459" y="649" width="38" height="38" transform="rotate(0,478,668)"/><circle cx="478" cy="744" r="19" transform="rotate(0,478,744)"/><path d="M 459 877v 38h 38a 38 38, 0, 0, 0, -38 -38" transform="rotate(-90,478,896)"/><path d="M 459 915v 38h 38a 38 38, 0, 0, 0, -38 -38" transform="rotate(90,478,934)"/><path d="M 459 991v 38h 19a 19 19, 0, 0, 0, 0 -38" transform="rotate(180,478,1010)"/><rect x="497" y="3" width="38" height="38" transform="rotate(0,516,22)"/><rect x="497" y="41" width="38" height="38" transform="rotate(0,516,60)"/><rect x="497" y="79" width="38" height="38" transform="rotate(0,516,98)"/><path d="M 497 117v 38h 19a 19 19, 0, 0, 0, 0 -38" transform="rotate(90,516,136)"/><rect x="497" y="193" width="38" height="38" transform="rotate(0,516,212)"/><path d="M 497 649v 38h 19a 19 19, 0, 0, 0, 0 -38" transform="rotate(0,516,668)"/><rect x="497" y="877" width="38" height="38" transform="rotate(0,516,896)"/><path d="M 497 991v 38h 38a 38 38, 0, 0, 0, -38 -38" transform="rotate(0,516,1010)"/><path d="M 497 1029v 38h 38a 38 38, 0, 0, 0, -38 -38" transform="rotate(180,516,1048)"/><path d="M 497 1105v 38h 38a 38 38, 0, 0, 0, -38 -38" transform="rotate(-90,516,1124)"/><rect x="497" y="1143" width="38" height="38" transform="rotate(0,516,1162)"/><rect x="497" y="1181" width="38" height="38" transform="rotate(0,516,1200)"/><path d="M 497 1219v 38h 38a 38 38, 0, 0, 0, -38 -38" transform="rotate(180,516,1238)"/><path d="M 535 3v 38h 19a 19 19, 0, 0, 0, 0 -38" transform="rotate(0,554,22)"/><rect x="535" y="79" width="38" height="38" transform="rotate(0,554,98)"/><path d="M 535 155v 38h 19a 19 19, 0, 0, 0, 0 -38" transform="rotate(-90,554,174)"/><rect x="535" y="193" width="38" height="38" transform="rotate(0,554,212)"/><path d="M 535 231v 38h 19a 19 19, 0, 0, 0, 0 -38" transform="rotate(90,554,250)"/><path d="M 535 307v 38h 19a 19 19, 0, 0, 0, 0 -38" transform="rotate(180,554,326)"/><path d="M 535 421v 38h 38a 38 38, 0, 0, 0, -38 -38" transform="rotate(-90,554,440)"/><rect x="535" y="459" width="38" height="38" transform="rotate(0,554,478)"/><rect x="535" y="497" width="38" height="38" transform="rotate(0,554,516)"/><rect x="535" y="535" width="38" height="38" transform="rotate(0,554,554)"/><rect x="535" y="573" width="38" height="38" transform="rotate(0,554,592)"/><path d="M 535 611v 38h 38a 38 38, 0, 0, 0, -38 -38" transform="rotate(180,554,630)"/><circle cx="554" cy="744" r="19" transform="rotate(0,554,744)"/><path d="M 535 839v 38h 38a 38 38, 0, 0, 0, -38 -38" transform="rotate(-90,554,858)"/><rect x="535" y="877" width="38" height="38" transform="rotate(0,554,896)"/><path d="M 535 1029v 38h 38a 38 38, 0, 0, 0, -38 -38" transform="rotate(0,554,1048)"/><rect x="535" y="1067" width="38" height="38" transform="rotate(0,554,1086)"/><rect x="535" y="1105" width="38" height="38" transform="rotate(0,554,1124)"/><path d="M 535 1219v 38h 19a 19 19, 0, 0, 0, 0 -38" transform="rotate(0,554,1238)"/><path d="M 573 79v 38h 19a 19 19, 0, 0, 0, 0 -38" transform="rotate(0,592,98)"/><rect x="573" y="193" width="38" height="38" transform="rotate(0,592,212)"/><path d="M 573 307v 38h 38a 38 38, 0, 0, 0, -38 -38" transform="rotate(0,592,326)"/><path d="M 573 345v 38h 19a 19 19, 0, 0, 0, 0 -38" transform="rotate(90,592,364)"/><path d="M 573 421v 38h 19a 19 19, 0, 0, 0, 0 -38" transform="rotate(0,592,440)"/><rect x="573" y="497" width="38" height="38" transform="rotate(0,592,516)"/><path d="M 573 611v 38h 19a 19 19, 0, 0, 0, 0 -38" transform="rotate(0,592,630)"/><path d="M 573 839v 38h 38a 38 38, 0, 0, 0, -38 -38" transform="rotate(0,592,858)"/><rect x="573" y="877" width="38" height="38" transform="rotate(0,592,896)"/><rect x="573" y="915" width="38" height="38" transform="rotate(0,592,934)"/><rect x="573" y="953" width="38" height="38" transform="rotate(0,592,972)"/><path d="M 573 991v 38h 38a 38 38, 0, 0, 0, -38 -38" transform="rotate(180,592,1010)"/><path d="M 573 1067v 38h 38a 38 38, 0, 0, 0, -38 -38" transform="rotate(0,592,1086)"/><rect x="573" y="1105" width="38" height="38" transform="rotate(0,592,1124)"/><path d="M 611 3v 38h 19a 19 19, 0, 0, 0, 0 -38" transform="rotate(180,630,22)"/><path d="M 611 117v 38h 19a 19 19, 0, 0, 0, 0 -38" transform="rotate(-90,630,136)"/><rect x="611" y="155" width="38" height="38" transform="rotate(0,630,174)"/><rect x="611" y="193" width="38" height="38" transform="rotate(0,630,212)"/><rect x="611" y="231" width="38" height="38" transform="rotate(0,630,250)"/><path d="M 611 269v 38h 19a 19 19, 0, 0, 0, 0 -38" transform="rotate(90,630,288)"/><path d="M 611 459v 38h 19a 19 19, 0, 0, 0, 0 -38" transform="rotate(-90,630,478)"/><rect x="611" y="497" width="38" height="38" transform="rotate(0,630,516)"/><circle cx="630" cy="592" r="19" transform="rotate(0,630,592)"/><path d="M 611 649v 38h 19a 19 19, 0, 0, 0, 0 -38" transform="rotate(-90,630,668)"/><rect x="611" y="687" width="38" height="38" transform="rotate(0,630,706)"/><rect x="611" y="725" width="38" height="38" transform="rotate(0,630,744)"/><path d="M 611 763v 38h 38a 38 38, 0, 0, 0, -38 -38" transform="rotate(180,630,782)"/><rect x="611" y="915" width="38" height="38" transform="rotate(0,630,934)"/><rect x="611" y="991" width="38" height="38" transform="rotate(0,630,1010)"/><path d="M 611 1029v 38h 19a 19 19, 0, 0, 0, 0 -38" transform="rotate(90,630,1048)"/><rect x="611" y="1105" width="38" height="38" transform="rotate(0,630,1124)"/><circle cx="630" cy="1200" r="19" transform="rotate(0,630,1200)"/><path d="M 649 3v 38h 19a 19 19, 0, 0, 0, 0 -38" transform="rotate(0,668,22)"/><circle cx="668" cy="98" r="19" transform="rotate(0,668,98)"/><rect x="649" y="193" width="38" height="38" transform="rotate(0,668,212)"/><circle cx="668" cy="326" r="19" transform="rotate(0,668,326)"/><path d="M 649 497v 38h 19a 19 19, 0, 0, 0, 0 -38" transform="rotate(0,668,516)"/><circle cx="668" cy="630" r="19" transform="rotate(0,668,630)"/><rect x="649" y="687" width="38" height="38" transform="rotate(0,668,706)"/><rect x="649" y="725" width="38" height="38" transform="rotate(0,668,744)"/><rect x="649" y="763" width="38" height="38" transform="rotate(0,668,782)"/><path d="M 649 877v 38h 38a 38 38, 0, 0, 0, -38 -38" transform="rotate(-90,668,896)"/><path d="M 649 915v 38h 38a 38 38, 0, 0, 0, -38 -38" transform="rotate(90,668,934)"/><rect x="649" y="991" width="38" height="38" transform="rotate(0,668,1010)"/><rect x="649" y="1105" width="38" height="38" transform="rotate(0,668,1124)"/><path d="M 649 1219v 38h 19a 19 19, 0, 0, 0, 0 -38" transform="rotate(180,668,1238)"/><path d="M 687 41v 38h 19a 19 19, 0, 0, 0, 0 -38" transform="rotate(180,706,60)"/><path d="M 687 117v 38h 19a 19 19, 0, 0, 0, 0 -38" transform="rotate(-90,706,136)"/><rect x="687" y="155" width="38" height="38" transform="rotate(0,706,174)"/><rect x="687" y="193" width="38" height="38" transform="rotate(0,706,212)"/><rect x="687" y="231" width="38" height="38" transform="rotate(0,706,250)"/><path d="M 687 269v 38h 38a 38 38, 0, 0, 0, -38 -38" transform="rotate(180,706,288)"/><circle cx="706" cy="364" r="19" transform="rotate(0,706,364)"/><path d="M 687 421v 38h 19a 19 19, 0, 0, 0, 0 -38" transform="rotate(-90,706,440)"/><path d="M 687 459v 38h 38a 38 38, 0, 0, 0, -38 -38" transform="rotate(180,706,478)"/><path d="M 687 573v 38h 19a 19 19, 0, 0, 0, 0 -38" transform="rotate(180,706,592)"/><path d="M 687 649v 38h 19a 19 19, 0, 0, 0, 0 -38" transform="rotate(-90,706,668)"/><rect x="687" y="687" width="38" height="38" transform="rotate(0,706,706)"/><rect x="687" y="725" width="38" height="38" transform="rotate(0,706,744)"/><rect x="687" y="763" width="38" height="38" transform="rotate(0,706,782)"/><rect x="687" y="801" width="38" height="38" transform="rotate(0,706,820)"/><rect x="687" y="839" width="38" height="38" transform="rotate(0,706,858)"/><path d="M 687 877v 38h 38a 38 38, 0, 0, 0, -38 -38" transform="rotate(90,706,896)"/><path d="M 687 953v 38h 19a 19 19, 0, 0, 0, 0 -38" transform="rotate(-90,706,972)"/><rect x="687" y="991" width="38" height="38" transform="rotate(0,706,1010)"/><path d="M 687 1029v 38h 19a 19 19, 0, 0, 0, 0 -38" transform="rotate(90,706,1048)"/><rect x="687" y="1105" width="38" height="38" transform="rotate(0,706,1124)"/><path d="M 687 1143v 38h 19a 19 19, 0, 0, 0, 0 -38" transform="rotate(90,706,1162)"/><rect x="687" y="1219" width="38" height="38" transform="rotate(0,706,1238)"/><path d="M 725 3v 38h 19a 19 19, 0, 0, 0, 0 -38" transform="rotate(-90,744,22)"/><rect x="725" y="41" width="38" height="38" transform="rotate(0,744,60)"/><path d="M 725 269v 38h 38a 38 38, 0, 0, 0, -38 -38" transform="rotate(0,744,288)"/><path d="M 725 307v 38h 19a 19 19, 0, 0, 0, 0 -38" transform="rotate(90,744,326)"/><rect x="725" y="459" width="38" height="38" transform="rotate(0,744,478)"/><rect x="725" y="497" width="38" height="38" transform="rotate(0,744,516)"/><rect x="725" y="535" width="38" height="38" transform="rotate(0,744,554)"/><rect x="725" y="573" width="38" height="38" transform="rotate(0,744,592)"/><rect x="725" y="839" width="38" height="38" transform="rotate(0,744,858)"/><rect x="725" y="991" width="38" height="38" transform="rotate(0,744,1010)"/><path d="M 725 1067v 38h 19a 19 19, 0, 0, 0, 0 -38" transform="rotate(-90,744,1086)"/><path d="M 725 1105v 38h 38a 38 38, 0, 0, 0, -38 -38" transform="rotate(90,744,1124)"/><path d="M 725 1181v 38h 19a 19 19, 0, 0, 0, 0 -38" transform="rotate(-90,744,1200)"/><path d="M 725 1219v 38h 38a 38 38, 0, 0, 0, -38 -38" transform="rotate(90,744,1238)"/><rect x="763" y="41" width="38" height="38" transform="rotate(0,782,60)"/><path d="M 763 117v 38h 19a 19 19, 0, 0, 0, 0 -38" transform="rotate(-90,782,136)"/><rect x="763" y="155" width="38" height="38" transform="rotate(0,782,174)"/><rect x="763" y="193" width="38" height="38" transform="rotate(0,782,212)"/><path d="M 763 231v 38h 19a 19 19, 0, 0, 0, 0 -38" transform="rotate(90,782,250)"/><path d="M 763 345v 38h 19a 19 19, 0, 0, 0, 0 -38" transform="rotate(180,782,364)"/><path d="M 763 459v 38h 38a 38 38, 0, 0, 0, -38 -38" transform="rotate(0,782,478)"/><rect x="763" y="497" width="38" height="38" transform="rotate(0,782,516)"/><path d="M 763 573v 38h 38a 38 38, 0, 0, 0, -38 -38" transform="rotate(0,782,592)"/><rect x="763" y="611" width="38" height="38" transform="rotate(0,782,630)"/><path d="M 763 649v 38h 19a 19 19, 0, 0, 0, 0 -38" transform="rotate(90,782,668)"/><path d="M 763 763v 38h 38a 38 38, 0, 0, 0, -38 -38" transform="rotate(-90,782,782)"/><rect x="763" y="801" width="38" height="38" transform="rotate(0,782,820)"/><path d="M 763 839v 38h 38a 38 38, 0, 0, 0, -38 -38" transform="rotate(90,782,858)"/><path d="M 763 915v 38h 38a 38 38, 0, 0, 0, -38 -38" transform="rotate(-90,782,934)"/><rect x="763" y="953" width="38" height="38" transform="rotate(0,782,972)"/><rect x="763" y="991" width="38" height="38" transform="rotate(0,782,1010)"/><path d="M 763 1029v 38h 38a 38 38, 0, 0, 0, -38 -38" transform="rotate(180,782,1048)"/><rect x="801" y="41" width="38" height="38" transform="rotate(0,820,60)"/><path d="M 801 269v 38h 38a 38 38, 0, 0, 0, -38 -38" transform="rotate(-90,820,288)"/><rect x="801" y="307" width="38" height="38" transform="rotate(0,820,326)"/><rect x="801" y="345" width="38" height="38" transform="rotate(0,820,364)"/><path d="M 801 383v 38h 19a 19 19, 0, 0, 0, 0 -38" transform="rotate(90,820,402)"/><path d="M 801 497v 38h 19a 19 19, 0, 0, 0, 0 -38" transform="rotate(0,820,516)"/><path d="M 801 611v 38h 19a 19 19, 0, 0, 0, 0 -38" transform="rotate(0,820,630)"/><circle cx="820" cy="706" r="19" transform="rotate(0,820,706)"/><rect x="801" y="763" width="38" height="38" transform="rotate(0,820,782)"/><path d="M 801 801v 38h 38a 38 38, 0, 0, 0, -38 -38" transform="rotate(90,820,820)"/><path d="M 801 877v 38h 38a 38 38, 0, 0, 0, -38 -38" transform="rotate(-90,820,896)"/><path d="M 801 915v 38h 38a 38 38, 0, 0, 0, -38 -38" transform="rotate(90,820,934)"/><rect x="801" y="991" width="38" height="38" transform="rotate(0,820,1010)"/><rect x="801" y="1029" width="38" height="38" transform="rotate(0,820,1048)"/><circle cx="820" cy="1124" r="19" transform="rotate(0,820,1124)"/><path d="M 801 1219v 38h 19a 19 19, 0, 0, 0, 0 -38" transform="rotate(180,820,1238)"/><path d="M 839 3v 38h 19a 19 19, 0, 0, 0, 0 -38" transform="rotate(-90,858,22)"/><rect x="839" y="41" width="38" height="38" transform="rotate(0,858,60)"/><rect x="839" y="79" width="38" height="38" transform="rotate(0,858,98)"/><rect x="839" y="117" width="38" height="38" transform="rotate(0,858,136)"/><rect x="839" y="155" width="38" height="38" transform="rotate(0,858,174)"/><rect x="839" y="193" width="38" height="38" transform="rotate(0,858,212)"/><rect x="839" y="231" width="38" height="38" transform="rotate(0,858,250)"/><path d="M 839 269v 38h 38a 38 38, 0, 0, 0, -38 -38" transform="rotate(90,858,288)"/><rect x="839" y="345" width="38" height="38" transform="rotate(0,858,364)"/><path d="M 839 535v 38h 19a 19 19, 0, 0, 0, 0 -38" transform="rotate(-90,858,554)"/><path d="M 839 573v 38h 38a 38 38, 0, 0, 0, -38 -38" transform="rotate(180,858,592)"/><circle cx="858" cy="668" r="19" transform="rotate(0,858,668)"/><rect x="839" y="763" width="38" height="38" transform="rotate(0,858,782)"/><path d="M 839 877v 38h 19a 19 19, 0, 0, 0, 0 -38" transform="rotate(0,858,896)"/><rect x="839" y="991" width="38" height="38" transform="rotate(0,858,1010)"/><rect x="839" y="1029" width="38" height="38" transform="rotate(0,858,1048)"/><path d="M 839 1067v 38h 19a 19 19, 0, 0, 0, 0 -38" transform="rotate(90,858,1086)"/><rect x="839" y="1219" width="38" height="38" transform="rotate(0,858,1238)"/><path d="M 877 117v 38h 38a 38 38, 0, 0, 0, -38 -38" transform="rotate(0,896,136)"/><rect x="877" y="155" width="38" height="38" transform="rotate(0,896,174)"/><path d="M 877 193v 38h 38a 38 38, 0, 0, 0, -38 -38" transform="rotate(90,896,212)"/><path d="M 877 307v 38h 19a 19 19, 0, 0, 0, 0 -38" transform="rotate(-90,896,326)"/><rect x="877" y="345" width="38" height="38" transform="rotate(0,896,364)"/><rect x="877" y="383" width="38" height="38" transform="rotate(0,896,402)"/><path d="M 877 421v 38h 19a 19 19, 0, 0, 0, 0 -38" transform="rotate(90,896,440)"/><path d="M 877 573v 38h 19a 19 19, 0, 0, 0, 0 -38" transform="rotate(0,896,592)"/><path d="M 877 687v 38h 19a 19 19, 0, 0, 0, 0 -38" transform="rotate(-90,896,706)"/><rect x="877" y="725" width="38" height="38" transform="rotate(0,896,744)"/><rect x="877" y="763" width="38" height="38" transform="rotate(0,896,782)"/><circle cx="896" cy="858" r="19" transform="rotate(0,896,858)"/><rect x="877" y="991" width="38" height="38" transform="rotate(0,896,1010)"/><rect x="877" y="1029" width="38" height="38" transform="rotate(0,896,1048)"/><path d="M 877 1105v 38h 19a 19 19, 0, 0, 0, 0 -38" transform="rotate(180,896,1124)"/><path d="M 877 1181v 38h 19a 19 19, 0, 0, 0, 0 -38" transform="rotate(-90,896,1200)"/><rect x="877" y="1219" width="38" height="38" transform="rotate(0,896,1238)"/><path d="M 915 3v 38h 19a 19 19, 0, 0, 0, 0 -38" transform="rotate(-90,934,22)"/><rect x="915" y="41" width="38" height="38" transform="rotate(0,934,60)"/><path d="M 915 79v 38h 19a 19 19, 0, 0, 0, 0 -38" transform="rotate(90,934,98)"/><path d="M 915 231v 38h 19a 19 19, 0, 0, 0, 0 -38" transform="rotate(-90,934,250)"/><path d="M 915 269v 38h 19a 19 19, 0, 0, 0, 0 -38" transform="rotate(90,934,288)"/><path d="M 915 459v 38h 38a 38 38, 0, 0, 0, -38 -38" transform="rotate(-90,934,478)"/><rect x="915" y="497" width="38" height="38" transform="rotate(0,934,516)"/><path d="M 915 535v 38h 19a 19 19, 0, 0, 0, 0 -38" transform="rotate(90,934,554)"/><path d="M 915 611v 38h 19a 19 19, 0, 0, 0, 0 -38" transform="rotate(-90,934,630)"/><path d="M 915 649v 38h 38a 38 38, 0, 0, 0, -38 -38" transform="rotate(180,934,668)"/><rect x="915" y="763" width="38" height="38" transform="rotate(0,934,782)"/><path d="M 915 915v 38h 38a 38 38, 0, 0, 0, -38 -38" transform="rotate(-90,934,934)"/><rect x="915" y="953" width="38" height="38" transform="rotate(0,934,972)"/><rect x="915" y="991" width="38" height="38" transform="rotate(0,934,1010)"/><rect x="915" y="1029" width="38" height="38" transform="rotate(0,934,1048)"/><rect x="915" y="1067" width="38" height="38" transform="rotate(0,934,1086)"/><path d="M 915 1105v 38h 38a 38 38, 0, 0, 0, -38 -38" transform="rotate(90,934,1124)"/><rect x="915" y="1219" width="38" height="38" transform="rotate(0,934,1238)"/><circle cx="972" cy="326" r="19" transform="rotate(0,972,326)"/><path d="M 953 421v 38h 19a 19 19, 0, 0, 0, 0 -38" transform="rotate(-90,972,440)"/><rect x="953" y="459" width="38" height="38" transform="rotate(0,972,478)"/><path d="M 953 573v 38h 19a 19 19, 0, 0, 0, 0 -38" transform="rotate(180,972,592)"/><path d="M 953 649v 38h 38a 38 38, 0, 0, 0, -38 -38" transform="rotate(0,972,668)"/><rect x="953" y="687" width="38" height="38" transform="rotate(0,972,706)"/><rect x="953" y="725" width="38" height="38" transform="rotate(0,972,744)"/><rect x="953" y="763" width="38" height="38" transform="rotate(0,972,782)"/><path d="M 953 801v 38h 19a 19 19, 0, 0, 0, 0 -38" transform="rotate(90,972,820)"/><rect x="953" y="915" width="38" height="38" transform="rotate(0,972,934)"/><rect x="953" y="1067" width="38" height="38" transform="rotate(0,972,1086)"/><rect x="953" y="1219" width="38" height="38" transform="rotate(0,972,1238)"/><rect x="991" y="459" width="38" height="38" transform="rotate(0,1010,478)"/><path d="M 991 573v 38h 38a 38 38, 0, 0, 0, -38 -38" transform="rotate(0,1010,592)"/><path d="M 991 611v 38h 19a 19 19, 0, 0, 0, 0 -38" transform="rotate(90,1010,630)"/><rect x="991" y="687" width="38" height="38" transform="rotate(0,1010,706)"/><rect x="991" y="725" width="38" height="38" transform="rotate(0,1010,744)"/><rect x="991" y="763" width="38" height="38" transform="rotate(0,1010,782)"/><rect x="991" y="915" width="38" height="38" transform="rotate(0,1010,934)"/><circle cx="1010" cy="1010" r="19" transform="rotate(0,1010,1010)"/><rect x="991" y="1067" width="38" height="38" transform="rotate(0,1010,1086)"/><rect x="991" y="1105" width="38" height="38" transform="rotate(0,1010,1124)"/><path d="M 991 1143v 38h 19a 19 19, 0, 0, 0, 0 -38" transform="rotate(90,1010,1162)"/><rect x="991" y="1219" width="38" height="38" transform="rotate(0,1010,1238)"/><rect x="1029" y="459" width="38" height="38" transform="rotate(0,1048,478)"/><path d="M 1029 535v 38h 19a 19 19, 0, 0, 0, 0 -38" transform="rotate(180,1048,554)"/><rect x="1029" y="687" width="38" height="38" transform="rotate(0,1048,706)"/><path d="M 1029 763v 38h 38a 38 38, 0, 0, 0, -38 -38" transform="rotate(0,1048,782)"/><path d="M 1029 801v 38h 38a 38 38, 0, 0, 0, -38 -38" transform="rotate(180,1048,820)"/><path d="M 1029 877v 38h 38a 38 38, 0, 0, 0, -38 -38" transform="rotate(-90,1048,896)"/><rect x="1029" y="915" width="38" height="38" transform="rotate(0,1048,934)"/><rect x="1029" y="1067" width="38" height="38" transform="rotate(0,1048,1086)"/><path d="M 1029 1105v 38h 38a 38 38, 0, 0, 0, -38 -38" transform="rotate(90,1048,1124)"/><rect x="1029" y="1219" width="38" height="38" transform="rotate(0,1048,1238)"/><path d="M 1067 421v 38h 19a 19 19, 0, 0, 0, 0 -38" transform="rotate(-90,1086,440)"/><rect x="1067" y="459" width="38" height="38" transform="rotate(0,1086,478)"/><rect x="1067" y="535" width="38" height="38" transform="rotate(0,1086,554)"/><rect x="1067" y="573" width="38" height="38" transform="rotate(0,1086,592)"/><rect x="1067" y="611" width="38" height="38" transform="rotate(0,1086,630)"/><rect x="1067" y="649" width="38" height="38" transform="rotate(0,1086,668)"/><rect x="1067" y="687" width="38" height="38" transform="rotate(0,1086,706)"/><path d="M 1067 725v 38h 19a 19 19, 0, 0, 0, 0 -38" transform="rotate(90,1086,744)"/><path d="M 1067 801v 38h 19a 19 19, 0, 0, 0, 0 -38" transform="rotate(0,1086,820)"/><path d="M 1067 877v 38h 38a 38 38, 0, 0, 0, -38 -38" transform="rotate(0,1086,896)"/><rect x="1067" y="915" width="38" height="38" transform="rotate(0,1086,934)"/><rect x="1067" y="953" width="38" height="38" transform="rotate(0,1086,972)"/><rect x="1067" y="991" width="38" height="38" transform="rotate(0,1086,1010)"/><rect x="1067" y="1029" width="38" height="38" transform="rotate(0,1086,1048)"/><rect x="1067" y="1067" width="38" height="38" transform="rotate(0,1086,1086)"/><path d="M 1067 1181v 38h 19a 19 19, 0, 0, 0, 0 -38" transform="rotate(-90,1086,1200)"/><rect x="1067" y="1219" width="38" height="38" transform="rotate(0,1086,1238)"/><path d="M 1105 345v 38h 38a 38 38, 0, 0, 0, -38 -38" transform="rotate(-90,1124,364)"/><path d="M 1105 383v 38h 38a 38 38, 0, 0, 0, -38 -38" transform="rotate(180,1124,402)"/><rect x="1105" y="459" width="38" height="38" transform="rotate(0,1124,478)"/><path d="M 1105 535v 38h 19a 19 19, 0, 0, 0, 0 -38" transform="rotate(0,1124,554)"/><rect x="1105" y="915" width="38" height="38" transform="rotate(0,1124,934)"/><path d="M 1105 953v 38h 38a 38 38, 0, 0, 0, -38 -38" transform="rotate(90,1124,972)"/><rect x="1105" y="1029" width="38" height="38" transform="rotate(0,1124,1048)"/><rect x="1105" y="1067" width="38" height="38" transform="rotate(0,1124,1086)"/><path d="M 1105 1143v 38h 19a 19 19, 0, 0, 0, 0 -38" transform="rotate(180,1124,1162)"/><rect x="1105" y="1219" width="38" height="38" transform="rotate(0,1124,1238)"/><path d="M 1143 307v 38h 38a 38 38, 0, 0, 0, -38 -38" transform="rotate(-90,1162,326)"/><rect x="1143" y="345" width="38" height="38" transform="rotate(0,1162,364)"/><rect x="1143" y="383" width="38" height="38" transform="rotate(0,1162,402)"/><rect x="1143" y="421" width="38" height="38" transform="rotate(0,1162,440)"/><rect x="1143" y="459" width="38" height="38" transform="rotate(0,1162,478)"/><path d="M 1143 611v 38h 19a 19 19, 0, 0, 0, 0 -38" transform="rotate(-90,1162,630)"/><path d="M 1143 649v 38h 38a 38 38, 0, 0, 0, -38 -38" transform="rotate(180,1162,668)"/><circle cx="1162" cy="744" r="19" transform="rotate(0,1162,744)"/><path d="M 1143 877v 38h 19a 19 19, 0, 0, 0, 0 -38" transform="rotate(-90,1162,896)"/><rect x="1143" y="915" width="38" height="38" transform="rotate(0,1162,934)"/><rect x="1143" y="1029" width="38" height="38" transform="rotate(0,1162,1048)"/><rect x="1143" y="1067" width="38" height="38" transform="rotate(0,1162,1086)"/><path d="M 1143 1143v 38h 38a 38 38, 0, 0, 0, -38 -38" transform="rotate(0,1162,1162)"/><rect x="1143" y="1181" width="38" height="38" transform="rotate(0,1162,1200)"/><path d="M 1143 1219v 38h 38a 38 38, 0, 0, 0, -38 -38" transform="rotate(90,1162,1238)"/><path d="M 1181 307v 38h 19a 19 19, 0, 0, 0, 0 -38" transform="rotate(0,1200,326)"/><path d="M 1181 421v 38h 38a 38 38, 0, 0, 0, -38 -38" transform="rotate(0,1200,440)"/><rect x="1181" y="459" width="38" height="38" transform="rotate(0,1200,478)"/><path d="M 1181 535v 38h 19a 19 19, 0, 0, 0, 0 -38" transform="rotate(180,1200,554)"/><path d="M 1181 649v 38h 19a 19 19, 0, 0, 0, 0 -38" transform="rotate(0,1200,668)"/><rect x="1181" y="915" width="38" height="38" transform="rotate(0,1200,934)"/><rect x="1181" y="953" width="38" height="38" transform="rotate(0,1200,972)"/><rect x="1181" y="991" width="38" height="38" transform="rotate(0,1200,1010)"/><rect x="1181" y="1029" width="38" height="38" transform="rotate(0,1200,1048)"/><rect x="1181" y="1067" width="38" height="38" transform="rotate(0,1200,1086)"/><path d="M 1181 1105v 38h 19a 19 19, 0, 0, 0, 0 -38" transform="rotate(90,1200,1124)"/><path d="M 1219 459v 38h 19a 19 19, 0, 0, 0, 0 -38" transform="rotate(0,1238,478)"/><path d="M 1219 535v 38h 19a 19 19, 0, 0, 0, 0 -38" transform="rotate(0,1238,554)"/><circle cx="1238" cy="744" r="19" transform="rotate(0,1238,744)"/><path d="M 1219 915v 38h 38a 38 38, 0, 0, 0, -38 -38" transform="rotate(0,1238,934)"/><path d="M 1219 953v 38h 38a 38 38, 0, 0, 0, -38 -38" transform="rotate(90,1238,972)"/><path d="M 1219 1029v 38h 38a 38 38, 0, 0, 0, -38 -38" transform="rotate(0,1238,1048)"/><path d="M 1219 1067v 38h 38a 38 38, 0, 0, 0, -38 -38" transform="rotate(90,1238,1086)"/><circle cx="1238" cy="1238" r="19" transform="rotate(0,1238,1238)"/></clipPath><radialGradient id="dot-color" gradientUnits="userSpaceOnUse" fx="630" fy="630" cx="630" cy="630" r="627"><stop offset="0%" stop-color="#cdeaf1"/><stop offset="10%" stop-color="#99d3df"/><stop offset="30%" stop-color="#00708e"/><stop offset="100%" stop-color="#00334e"/></radialGradient><clipPath id="clip-path-corners-square-color-0-0"><path clip-rule="evenodd" d="M 3 98v 76a 95 95, 0, 0, 0, 95 95h 76a 95 95, 0, 0, 0, 95 -95v -76a 95 95, 0, 0, 0, -95 -95h -76a 95 95, 0, 0, 0, -95 95M 98 41h 76a 57 57, 0, 0, 1, 57 57v 76a 57 57, 0, 0, 1, -57 57h -76a 57 57, 0, 0, 1, -57 -57v -76a 57 57, 0, 0, 1, 57 -57" transform="rotate(0,136,136)"/><path d="M 79 79v 38h 38a 38 38, 0, 0, 0, -38 -38" transform="rotate(-90,98,98)"/><rect x="79" y="117" width="38" height="38" transform="rotate(0,98,136)"/><path d="M 79 155v 38h 38a 38 38, 0, 0, 0, -38 -38" transform="rotate(180,98,174)"/><rect x="117" y="79" width="38" height="38" transform="rotate(0,136,98)"/><rect x="117" y="117" width="38" height="38" transform="rotate(0,136,136)"/><rect x="117" y="155" width="38" height="38" transform="rotate(0,136,174)"/><path d="M 155 79v 38h 38a 38 38, 0, 0, 0, -38 -38" transform="rotate(0,174,98)"/><rect x="155" y="117" width="38" height="38" transform="rotate(0,174,136)"/><path d="M 155 155v 38h 38a 38 38, 0, 0, 0, -38 -38" transform="rotate(90,174,174)"/></clipPath><clipPath id="clip-path-corners-square-color-1-0"><path clip-rule="evenodd" d="M 991 98v 76a 95 95, 0, 0, 0, 95 95h 76a 95 95, 0, 0, 0, 95 -95v -76a 95 95, 0, 0, 0, -95 -95h -76a 95 95, 0, 0, 0, -95 95M 1086 41h 76a 57 57, 0, 0, 1, 57 57v 76a 57 57, 0, 0, 1, -57 57h -76a 57 57, 0, 0, 1, -57 -57v -76a 57 57, 0, 0, 1, 57 -57" transform="rotate(90,1124,136)"/><path d="M 1067 79v 38h 38a 38 38, 0, 0, 0, -38 -38" transform="rotate(-90,1086,98)"/><rect x="1067" y="117" width="38" height="38" transform="rotate(0,1086,136)"/><path d="M 1067 155v 38h 38a 38 38, 0, 0, 0, -38 -38" transform="rotate(180,1086,174)"/><rect x="1105" y="79" width="38" height="38" transform="rotate(0,1124,98)"/><rect x="1105" y="117" width="38" height="38" transform="rotate(0,1124,136)"/><rect x="1105" y="155" width="38" height="38" transform="rotate(0,1124,174)"/><path d="M 1143 79v 38h 38a 38 38, 0, 0, 0, -38 -38" transform="rotate(0,1162,98)"/><rect x="1143" y="117" width="38" height="38" transform="rotate(0,1162,136)"/><path d="M 1143 155v 38h 38a 38 38, 0, 0, 0, -38 -38" transform="rotate(90,1162,174)"/></clipPath><clipPath id="clip-path-corners-square-color-0-1"><path clip-rule="evenodd" d="M 3 1086v 76a 95 95, 0, 0, 0, 95 95h 76a 95 95, 0, 0, 0, 95 -95v -76a 95 95, 0, 0, 0, -95 -95h -76a 95 95, 0, 0, 0, -95 95M 98 1029h 76a 57 57, 0, 0, 1, 57 57v 76a 57 57, 0, 0, 1, -57 57h -76a 57 57, 0, 0, 1, -57 -57v -76a 57 57, 0, 0, 1, 57 -57" transform="rotate(-90,136,1124)"/><path d="M 79 1067v 38h 38a 38 38, 0, 0, 0, -38 -38" transform="rotate(-90,98,1086)"/><rect x="79" y="1105" width="38" height="38" transform="rotate(0,98,1124)"/><path d="M 79 1143v 38h 38a 38 38, 0, 0, 0, -38 -38" transform="rotate(180,98,1162)"/><rect x="117" y="1067" width="38" height="38" transform="rotate(0,136,1086)"/><rect x="117" y="1105" width="38" height="38" transform="rotate(0,136,1124)"/><rect x="117" y="1143" width="38" height="38" transform="rotate(0,136,1162)"/><path d="M 155 1067v 38h 38a 38 38, 0, 0, 0, -38 -38" transform="rotate(0,174,1086)"/><rect x="155" y="1105" width="38" height="38" transform="rotate(0,174,1124)"/><path d="M 155 1143v 38h 38a 38 38, 0, 0, 0, -38 -38" transform="rotate(90,174,1162)"/></clipPath></defs><rect x="0" y="0" height="1260" width="1260" clip-path="url('#clip-path-background-color')" fill="#fff"/><rect x="3" y="3" height="1254" width="1254" clip-path="url('#clip-path-dot-color')" fill="url('#dot-color')"/><rect x="3" y="3" height="266" width="266" clip-path="url('#clip-path-corners-square-color-0-0')" fill="#f15927"/><rect x="991" y="3" height="266" width="266" clip-path="url('#clip-path-corners-square-color-1-0')" fill="#f15927"/><rect x="3" y="991" height="266" width="266" clip-path="url('#clip-path-corners-square-color-0-1')" fill="#f15927"/></svg>