<?xml version="1.0" standalone="no"?>
<svg xmlns="http://www.w3.org/2000/svg" width="1260" height="1260"><defs><clipPath id="clip-path-dot-color"><path d="M 1 307v 34h 17a 17 17, 0, 0, 0, 0 -34" transform="rotate(-90,18,324)"/><rect x="1" y="341" width="34" height="34" transform="rotate(0,18,358)"/><rect x="1" y="375" width="34" height="34" transform="rotate(0,18,392)"/><path d="M 1 409v 34h 34a 34 34, 0, 0, 0, -34 -34" transform="rotate(180,18,426)"/><path d="M 1 477v 34h 17a 17 17, 0, 0, 0, 0 -34" transform="rotate(180,18,494)"/><path d="M 1 749v 34h 34a 34 34, 0, 0, 0, -34 -34" transform="rotate(-90,18,766)"/><path d="M 1 783v 34h 17a 17 17, 0, 0, 0, 0 -34" transform="rotate(90,18,800)"/><path d="M 1 851v 34h 34a 34 34, 0, 0, 0, -34 -34" transform="rotate(-90,18,868)"/><rect x="1" y="885" width="34" height="34" transform="rotate(0,18,902)"/><rect x="1" y="919" width="34" height="34" transform="rotate(0,18,936)"/><path d="M 1 953v 34h 17a 17 17, 0, 0, 0, 0 -34" transform="rotate(90,18,970)"/><circle cx="52" cy="290" r="17" transform="rotate(0,52,290)"/><rect x="35" y="375" width="34" height="34" transform="rotate(0,52,392)"/><rect x="35" y="409" width="34" height="34" transform="rotate(0,52,426)"/><rect x="35" y="443" width="34" height="34" transform="rotate(0,52,460)"/><rect x="35" y="477" width="34" height="34" transform="rotate(0,52,494)"/><rect x="35" y="511" width="34" height="34" transform="rotate(0,52,528)"/><path d="M 35 545v 34h 17a 17 17, 0, 0, 0, 0 -34" transform="rotate(90,52,562)"/><path d="M 35 613v 34h 17a 17 17, 0, 0, 0, 0 -34" transform="rotate(-90,52,630)"/><rect x="35" y="647" width="34" height="34" transform="rotate(0,52,664)"/><rect x="35" y="681" width="34" height="34" transform="rotate(0,52,698)"/><rect x="35" y="715" width="34" height="34" transform="rotate(0,52,732)"/><path d="M 35 749v 34h 34a 34 34, 0, 0, 0, -34 -34" transform="rotate(90,52,766)"/><path d="M 35 851v 34h 17a 17 17, 0, 0, 0, 0 -34" transform="rotate(0,52,868)"/><path d="M 69 307v 34h 17a 17 17, 0, 0, 0, 0 -34" transform="rotate(180,86,324)"/><path d="M 69 375v 34h 17a 17 17, 0, 0, 0, 0 -34" transform="rotate(0,86,392)"/><rect x="69" y="477" width="34" height="34" transform="rotate(0,86,494)"/><circle cx="86" cy="596" r="17" transform="rotate(0,86,596)"/><rect x="69" y="681" width="34" height="34" transform="rotate(0,86,698)"/><rect x="69" y="715" width="34" height="34" transform="rotate(0,86,732)"/><path d="M 69 817v 34h 17a 17 17, 0, 0, 0, 0 -34" transform="rotate(180,86,834)"/><path d="M 69 919v 34h 17a 17 17, 0, 0, 0, 0 -34" transform="rotate(180,86,936)"/><path d="M 103 307v 34h 34a 34 34, 0, 0, 0, -34 -34" transform="rotate(0,120,324)"/><path d="M 103 341v 34h 17a 17 17, 0, 0, 0, 0 -34" transform="rotate(90,120,358)"/><path d="M 103 409v 34h 17a 17 17, 0, 0, 0, 0 -34" transform="rotate(-90,120,426)"/><rect x="103" y="443" width="34" height="34" transform="rotate(0,120,460)"/><rect x="103" y="477" width="34" height="34" transform="rotate(0,120,494)"/><path d="M 103 613v 34h 34a 34 34, 0, 0, 0, -34 -34" transform="rotate(-90,120,630)"/><rect x="103" y="647" width="34" height="34" transform="rotate(0,120,664)"/><rect x="103" y="681" width="34" height="34" transform="rotate(0,120,698)"/><rect x="103" y="715" width="34" height="34" transform="rotate(0,120,732)"/><rect x="103" y="749" width="34" height="34" transform="rotate(0,120,766)"/><rect x="103" y="783" width="34" height="34" transform="rotate(0,120,800)"/><rect x="103" y="817" width="34" height="34" transform="rotate(0,120,834)"/><rect x="103" y="851" width="34" height="34" transform="rotate(0,120,868)"/><rect x="103" y="885" width="34" height="34" transform="rotate(0,120,902)"/><rect x="103" y="919" width="34" height="34" transform="rotate(0,120,936)"/><path d="M 103 953v 34h 17a 17 17, 0, 0, 0, 0 -34" transform="rotate(90,120,970)"/><path d="M 137 443v 34h 34a 34 34, 0, 0, 0, -34 -34" transform="rotate(0,154,460)"/><rect x="137" y="477" width="34" height="34" transform="rotate(0,154,494)"/><rect x="137" y="511" width="34" height="34" transform="rotate(0,154,528)"/><path d="M 137 545v 34h 34a 34 34, 0, 0, 0, -34 -34" transform="rotate(180,154,562)"/><rect x="137" y="613" width="34" height="34" transform="rotate(0,154,630)"/><path d="M 137 681v 34h 34a 34 34, 0, 0, 0, -34 -34" transform="rotate(0,154,698)"/><rect x="137" y="715" width="34" height="34" transform="rotate(0,154,732)"/><rect x="137" y="851" width="34" height="34" transform="rotate(0,154,868)"/><rect x="137" y="885" width="34" height="34" transform="rotate(0,154,902)"/><path d="M 137 919v 34h 34a 34 34, 0, 0, 0, -34 -34" transform="rotate(90,154,936)"/><path d="M 171 273v 34h 17a 17 17, 0, 0, 0, 0 -34" transform="rotate(180,188,290)"/><path d="M 171 341v 34h 34a 34 34, 0, 0, 0, -34 -34" transform="rotate(-90,188,358)"/><rect x="171" y="375" width="34" height="34" transform="rotate(0,188,392)"/><path d="M 171 409v 34h 34a 34 34, 0, 0, 0, -34 -34" transform="rotate(180,188,426)"/><path d="M 171 511v 34h 34a 34 34, 0, 0, 0, -34 -34" transform="rotate(0,188,528)"/><rect x="171" y="545" width="34" height="34" transform="rotate(0,188,562)"/><rect x="171" y="579" width="34" height="34" transform="rotate(0,188,596)"/><rect x="171" y="613" width="34" height="34" transform="rotate(0,188,630)"/><path d="M 171 647v 34h 17a 17 17, 0, 0, 0, 0 -34" transform="rotate(90,188,664)"/><path d="M 171 715v 34h 17a 17 17, 0, 0, 0, 0 -34" transform="rotate(0,188,732)"/><path d="M 171 783v 34h 17a 17 17, 0, 0, 0, 0 -34" transform="rotate(-90,188,800)"/><rect x="171" y="817" width="34" height="34" transform="rotate(0,188,834)"/><rect x="171" y="851" width="34" height="34" transform="rotate(0,188,868)"/><rect x="171" y="885" width="34" height="34" transform="rotate(0,188,902)"/><path d="M 171 953v 34h 17a 17 17, 0, 0, 0, 0 -34" transform="rotate(180,188,970)"/><rect x="205" y="273" width="34" height="34" transform="rotate(0,222,290)"/><path d="M 205 341v 34h 17a 17 17, 0, 0, 0, 0 -34" transform="rotate(0,222,358)"/><rect x="205" y="409" width="34" height="34" transform="rotate(0,222,426)"/><circle cx="222" cy="494" r="17" transform="rotate(0,222,494)"/><rect x="205" y="545" width="34" height="34" transform="rotate(0,222,562)"/><rect x="205" y="613" width="34" height="34" transform="rotate(0,222,630)"/><path d="M 205 681v 34h 17a 17 17, 0, 0, 0, 0 -34" transform="rotate(180,222,698)"/><circle cx="222" cy="766" r="17" transform="rotate(0,222,766)"/><path d="M 205 817v 34h 17a 17 17, 0, 0, 0, 0 -34" transform="rotate(0,222,834)"/><rect x="205" y="885" width="34" height="34" transform="rotate(0,222,902)"/><path d="M 205 953v 34h 17a 17 17, 0, 0, 0, 0 -34" transform="rotate(0,222,970)"/><path d="M 239 273v 34h 34a 34 34, 0, 0, 0, -34 -34" transform="rotate(0,256,290)"/><path d="M 239 307v 34h 34a 34 34, 0, 0, 0, -34 -34" transform="rotate(180,256,324)"/><path d="M 239 375v 34h 34a 34 34, 0, 0, 0, -34 -34" transform="rotate(-90,256,392)"/><rect x="239" y="409" width="34" height="34" transform="rotate(0,256,426)"/><path d="M 239 443v 34h 17a 17 17, 0, 0, 0, 0 -34" transform="rotate(90,256,460)"/><path d="M 239 511v 34h 17a 17 17, 0, 0, 0, 0 -34" transform="rotate(-90,256,528)"/><rect x="239" y="545" width="34" height="34" transform="rotate(0,256,562)"/><rect x="239" y="579" width="34" height="34" transform="rotate(0,256,596)"/><rect x="239" y="613" width="34" height="34" transform="rotate(0,256,630)"/><path d="M 239 681v 34h 34a 34 34, 0, 0, 0, -34 -34" transform="rotate(0,256,698)"/><path d="M 239 715v 34h 17a 17 17, 0, 0, 0, 0 -34" transform="rotate(90,256,732)"/><circle cx="256" cy="800" r="17" transform="rotate(0,256,800)"/><rect x="239" y="885" width="34" height="34" transform="rotate(0,256,902)"/><path d="M 273 137v 34h 34a 34 34, 0, 0, 0, -34 -34" transform="rotate(-90,290,154)"/><rect x="273" y="171" width="34" height="34" transform="rotate(0,290,188)"/><rect x="273" y="205" width="34" height="34" transform="rotate(0,290,222)"/><path d="M 273 239v 34h 17a 17 17, 0, 0, 0, 0 -34" transform="rotate(90,290,256)"/><rect x="273" y="307" width="34" height="34" transform="rotate(0,290,324)"/><rect x="273" y="341" width="34" height="34" transform="rotate(0,290,358)"/><rect x="273" y="375" width="34" height="34" transform="rotate(0,290,392)"/><path d="M 273 409v 34h 34a 34 34, 0, 0, 0, -34 -34" transform="rotate(90,290,426)"/><path d="M 273 545v 34h 17a 17 17, 0, 0, 0, 0 -34" transform="rotate(0,290,562)"/><rect x="273" y="613" width="34" height="34" transform="rotate(0,290,630)"/><path d="M 273 647v 34h 17a 17 17, 0, 0, 0, 0 -34" transform="rotate(90,290,664)"/><path d="M 273 851v 34h 17a 17 17, 0, 0, 0, 0 -34" transform="rotate(-90,290,868)"/><rect x="273" y="885" width="34" height="34" transform="rotate(0,290,902)"/><path d="M 273 919v 34h 17a 17 17, 0, 0, 0, 0 -34" transform="rotate(90,290,936)"/><path d="M 273 1021v 34h 17a 17 17, 0, 0, 0, 0 -34" transform="rotate(-90,290,1038)"/><path d="M 273 1055v 34h 17a 17 17, 0, 0, 0, 0 -34" transform="rotate(90,290,1072)"/><path d="M 273 1191v 34h 17a 17 17, 0, 0, 0, 0 -34" transform="rotate(180,290,1208)"/><path d="M 307 35v 34h 17a 17 17, 0, 0, 0, 0 -34" transform="rotate(-90,324,52)"/><path d="M 307 69v 34h 34a 34 34, 0, 0, 0, -34 -34" transform="rotate(180,324,86)"/><path d="M 307 137v 34h 34a 34 34, 0, 0, 0, -34 -34" transform="rotate(0,324,154)"/><path d="M 307 171v 34h 34a 34 34, 0, 0, 0, -34 -34" transform="rotate(90,324,188)"/><path d="M 307 307v 34h 34a 34 34, 0, 0, 0, -34 -34" transform="rotate(0,324,324)"/><rect x="307" y="341" width="34" height="34" transform="rotate(0,324,358)"/><rect x="307" y="375" width="34" height="34" transform="rotate(0,324,392)"/><path d="M 307 443v 34h 17a 17 17, 0, 0, 0, 0 -34" transform="rotate(-90,324,460)"/><path d="M 307 477v 34h 34a 34 34, 0, 0, 0, -34 -34" transform="rotate(180,324,494)"/><path d="M 307 579v 34h 34a 34 34, 0, 0, 0, -34 -34" transform="rotate(-90,324,596)"/><path d="M 307 613v 34h 34a 34 34, 0, 0, 0, -34 -34" transform="rotate(90,324,630)"/><path d="M 307 715v 34h 17a 17 17, 0, 0, 0, 0 -34" transform="rotate(180,324,732)"/><path d="M 307 783v 34h 34a 34 34, 0, 0, 0, -34 -34" transform="rotate(-90,324,800)"/><path d="M 307 817v 34h 34a 34 34, 0, 0, 0, -34 -34" transform="rotate(180,324,834)"/><path d="M 307 953v 34h 34a 34 34, 0, 0, 0, -34 -34" transform="rotate(-90,324,970)"/><path d="M 307 987v 34h 34a 34 34, 0, 0, 0, -34 -34" transform="rotate(180,324,1004)"/><circle cx="324" cy="1106" r="17" transform="rotate(0,324,1106)"/><path d="M 307 1157v 34h 34a 34 34, 0, 0, 0, -34 -34" transform="rotate(-90,324,1174)"/><path d="M 307 1191v 34h 34a 34 34, 0, 0, 0, -34 -34" transform="rotate(90,324,1208)"/><path d="M 341 69v 34h 17a 17 17, 0, 0, 0, 0 -34" transform="rotate(0,358,86)"/><circle cx="358" cy="222" r="17" transform="rotate(0,358,222)"/><circle cx="358" cy="290" r="17" transform="rotate(0,358,290)"/><rect x="341" y="341" width="34" height="34" transform="rotate(0,358,358)"/><rect x="341" y="375" width="34" height="34" transform="rotate(0,358,392)"/><path d="M 341 409v 34h 17a 17 17, 0, 0, 0, 0 -34" transform="rotate(90,358,426)"/><rect x="341" y="477" width="34" height="34" transform="rotate(0,358,494)"/><rect x="341" y="579" width="34" height="34" transform="rotate(0,358,596)"/><path d="M 341 647v 34h 17a 17 17, 0, 0, 0, 0 -34" transform="rotate(180,358,664)"/><path d="M 341 715v 34h 17a 17 17, 0, 0, 0, 0 -34" transform="rotate(0,358,732)"/><rect x="341" y="783" width="34" height="34" transform="rotate(0,358,800)"/><rect x="341" y="817" width="34" height="34" transform="rotate(0,358,834)"/><rect x="341" y="851" width="34" height="34" transform="rotate(0,358,868)"/><path d="M 341 885v 34h 34a 34 34, 0, 0, 0, -34 -34" transform="rotate(180,358,902)"/><path d="M 341 953v 34h 34a 34 34, 0, 0, 0, -34 -34" transform="rotate(0,358,970)"/><rect x="341" y="987" width="34" height="34" transform="rotate(0,358,1004)"/><rect x="341" y="1157" width="34" height="34" transform="rotate(0,358,1174)"/><circle cx="392" cy="18" r="17" transform="rotate(0,392,18)"/><path d="M 375 239v 34h 17a 17 17, 0, 0, 0, 0 -34" transform="rotate(180,392,256)"/><path d="M 375 341v 34h 17a 17 17, 0, 0, 0, 0 -34" transform="rotate(0,392,358)"/><path d="M 375 477v 34h 34a 34 34, 0, 0, 0, -34 -34" transform="rotate(0,392,494)"/><rect x="375" y="511" width="34" height="34" transform="rotate(0,392,528)"/><rect x="375" y="545" width="34" height="34" transform="rotate(0,392,562)"/><path d="M 375 579v 34h 34a 34 34, 0, 0, 0, -34 -34" transform="rotate(90,392,596)"/><path d="M 375 647v 34h 34a 34 34, 0, 0, 0, -34 -34" transform="rotate(0,392,664)"/><path d="M 375 681v 34h 34a 34 34, 0, 0, 0, -34 -34" transform="rotate(180,392,698)"/><path d="M 375 749v 34h 17a 17 17, 0, 0, 0, 0 -34" transform="rotate(-90,392,766)"/><rect x="375" y="783" width="34" height="34" transform="rotate(0,392,800)"/><path d="M 375 885v 34h 17a 17 17, 0, 0, 0, 0 -34" transform="rotate(0,392,902)"/><rect x="375" y="987" width="34" height="34" transform="rotate(0,392,1004)"/><rect x="375" y="1157" width="34" height="34" transform="rotate(0,392,1174)"/><path d="M 409 35v 34h 17a 17 17, 0, 0, 0, 0 -34" transform="rotate(-90,426,52)"/><rect x="409" y="69" width="34" height="34" transform="rotate(0,426,86)"/><path d="M 409 103v 34h 34a 34 34, 0, 0, 0, -34 -34" transform="rotate(180,426,120)"/><path d="M 409 171v 34h 34a 34 34, 0, 0, 0, -34 -34" transform="rotate(-90,426,188)"/><rect x="409" y="205" width="34" height="34" transform="rotate(0,426,222)"/><rect x="409" y="239" width="34" height="34" transform="rotate(0,426,256)"/><rect x="409" y="273" width="34" height="34" transform="rotate(0,426,290)"/><path d="M 409 307v 34h 34a 34 34, 0, 0, 0, -34 -34" transform="rotate(180,426,324)"/><circle cx="426" cy="392" r="17" transform="rotate(0,426,392)"/><circle cx="426" cy="460" r="17" transform="rotate(0,426,460)"/><path d="M 409 545v 34h 17a 17 17, 0, 0, 0, 0 -34" transform="rotate(0,426,562)"/><path d="M 409 613v 34h 17a 17 17, 0, 0, 0, 0 -34" transform="rotate(180,426,630)"/><rect x="409" y="681" width="34" height="34" transform="rotate(0,426,698)"/><path d="M 409 715v 34h 34a 34 34, 0, 0, 0, -34 -34" transform="rotate(180,426,732)"/><path d="M 409 783v 34h 34a 34 34, 0, 0, 0, -34 -34" transform="rotate(0,426,800)"/><path d="M 409 817v 34h 17a 17 17, 0, 0, 0, 0 -34" transform="rotate(90,426,834)"/><path d="M 409 919v 34h 34a 34 34, 0, 0, 0, -34 -34" transform="rotate(-90,426,936)"/><rect x="409" y="953" width="34" height="34" transform="rotate(0,426,970)"/><rect x="409" y="987" width="34" height="34" transform="rotate(0,426,1004)"/><rect x="409" y="1021" width="34" height="34" transform="rotate(0,426,1038)"/><path d="M 409 1055v 34h 34a 34 34, 0, 0, 0, -34 -34" transform="rotate(180,426,1072)"/><rect x="409" y="1157" width="34" height="34" transform="rotate(0,426,1174)"/><rect x="409" y="1191" width="34" height="34" transform="rotate(0,426,1208)"/><path d="M 409 1225v 34h 17a 17 17, 0, 0, 0, 0 -34" transform="rotate(90,426,1242)"/><path d="M 443 69v 34h 34a 34 34, 0, 0, 0, -34 -34" transform="rotate(0,460,86)"/><path d="M 443 103v 34h 34a 34 34, 0, 0, 0, -34 -34" transform="rotate(90,460,120)"/><rect x="443" y="171" width="34" height="34" transform="rotate(0,460,188)"/><path d="M 443 307v 34h 34a 34 34, 0, 0, 0, -34 -34" transform="rotate(0,460,324)"/><path d="M 443 341v 34h 34a 34 34, 0, 0, 0, -34 -34" transform="rotate(180,460,358)"/><path d="M 443 477v 34h 17a 17 17, 0, 0, 0, 0 -34" transform="rotate(-90,460,494)"/><path d="M 443 511v 34h 17a 17 17, 0, 0, 0, 0 -34" transform="rotate(90,460,528)"/><rect x="443" y="613" width="34" height="34" transform="rotate(0,460,630)"/><rect x="443" y="681" width="34" height="34" transform="rotate(0,460,698)"/><rect x="443" y="715" width="34" height="34" transform="rotate(0,460,732)"/><path d="M 443 749v 34h 34a 34 34, 0, 0, 0, -34 -34" transform="rotate(180,460,766)"/><path d="M 443 885v 34h 17a 17 17, 0, 0, 0, 0 -34" transform="rotate(-90,460,902)"/><rect x="443" y="919" width="34" height="34" transform="rotate(0,460,936)"/><rect x="443" y="953" width="34" height="34" transform="rotate(0,460,970)"/><rect x="443" y="987" width="34" height="34" transform="rotate(0,460,1004)"/><path d="M 443 1055v 34h 34a 34 34, 0, 0, 0, -34 -34" transform="rotate(0,460,1072)"/><path d="M 443 1089v 34h 34a 34 34, 0, 0, 0, -34 -34" transform="rotate(180,460,1106)"/><rect x="443" y="1157" width="34" height="34" transform="rotate(0,460,1174)"/><circle cx="494" cy="52" r="17" transform="rotate(0,494,52)"/><rect x="477" y="171" width="34" height="34" transform="rotate(0,494,188)"/><path d="M 477 205v 34h 17a 17 17, 0, 0, 0, 0 -34" transform="rotate(90,494,222)"/><rect x="477" y="341" width="34" height="34" transform="rotate(0,494,358)"/><rect x="477" y="375" width="34" height="34" transform="rotate(0,494,392)"/><path d="M 477 409v 34h 17a 17 17, 0, 0, 0, 0 -34" transform="rotate(90,494,426)"/><path d="M 477 545v 34h 17a 17 17, 0, 0, 0, 0 -34" transform="rotate(180,494,562)"/><rect x="477" y="613" width="34" height="34" transform="rotate(0,494,630)"/><path d="M 477 681v 34h 34a 34 34, 0, 0, 0, -34 -34" transform="rotate(0,494,698)"/><rect x="477" y="715" width="34" height="34" transform="rotate(0,494,732)"/><rect x="477" y="749" width="34" height="34" transform="rotate(0,494,766)"/><rect x="477" y="919" width="34" height="34" transform="rotate(0,494,936)"/><path d="M 477 987v 34h 17a 17 17, 0, 0, 0, 0 -34" transform="rotate(0,494,1004)"/><rect x="477" y="1089" width="34" height="34" transform="rotate(0,494,1106)"/><rect x="477" y="1123" width="34" height="34" transform="rotate(0,494,1140)"/><rect x="477" y="1157" width="34" height="34" transform="rotate(0,494,1174)"/><circle cx="528" cy="120" r="17" transform="rotate(0,528,120)"/><rect x="511" y="171" width="34" height="34" transform="rotate(0,528,188)"/><path d="M 511 273v 34h 17a 17 17, 0, 0, 0, 0 -34" transform="rotate(-90,528,290)"/><rect x="511" y="307" width="34" height="34" transform="rotate(0,528,324)"/><rect x="511" y="341" width="34" height="34" transform="rotate(0,528,358)"/><path d="M 511 375v 34h 34a 34 34, 0, 0, 0, -34 -34" transform="rotate(90,528,392)"/><path d="M 511 443v 34h 34a 34 34, 0, 0, 0, -34 -34" transform="rotate(-90,528,460)"/><path d="M 511 477v 34h 17a 17 17, 0, 0, 0, 0 -34" transform="rotate(90,528,494)"/><path d="M 511 545v 34h 17a 17 17, 0, 0, 0, 0 -34" transform="rotate(0,528,562)"/><rect x="511" y="613" width="34" height="34" transform="rotate(0,528,630)"/><path d="M 511 647v 34h 34a 34 34, 0, 0, 0, -34 -34" transform="rotate(180,528,664)"/><rect x="511" y="749" width="34" height="34" transform="rotate(0,528,766)"/><rect x="511" y="783" width="34" height="34" transform="rotate(0,528,800)"/><path d="M 511 817v 34h 34a 34 34, 0, 0, 0, -34 -34" transform="rotate(180,528,834)"/><rect x="511" y="919" width="34" height="34" transform="rotate(0,528,936)"/><path d="M 511 953v 34h 34a 34 34, 0, 0, 0, -34 -34" transform="rotate(180,528,970)"/><path d="M 511 1021v 34h 34a 34 34, 0, 0, 0, -34 -34" transform="rotate(-90,528,1038)"/><rect x="511" y="1055" width="34" height="34" transform="rotate(0,528,1072)"/><path d="M 511 1089v 34h 34a 34 34, 0, 0, 0, -34 -34" transform="rotate(90,528,1106)"/><rect x="511" y="1157" width="34" height="34" transform="rotate(0,528,1174)"/><path d="M 545 69v 34h 17a 17 17, 0, 0, 0, 0 -34" transform="rotate(180,562,86)"/><rect x="545" y="171" width="34" height="34" transform="rotate(0,562,188)"/><rect x="545" y="205" width="34" height="34" transform="rotate(0,562,222)"/><path d="M 545 239v 34h 34a 34 34, 0, 0, 0, -34 -34" transform="rotate(180,562,256)"/><rect x="545" y="307" width="34" height="34" transform="rotate(0,562,324)"/><path d="M 545 341v 34h 34a 34 34, 0, 0, 0, -34 -34" transform="rotate(90,562,358)"/><path d="M 545 409v 34h 34a 34 34, 0, 0, 0, -34 -34" transform="rotate(-90,562,426)"/><rect x="545" y="443" width="34" height="34" transform="rotate(0,562,460)"/><rect x="545" y="613" width="34" height="34" transform="rotate(0,562,630)"/><path d="M 545 647v 34h 34a 34 34, 0, 0, 0, -34 -34" transform="rotate(90,562,664)"/><rect x="545" y="749" width="34" height="34" transform="rotate(0,562,766)"/><rect x="545" y="783" width="34" height="34" transform="rotate(0,562,800)"/><path d="M 545 817v 34h 34a 34 34, 0, 0, 0, -34 -34" transform="rotate(90,562,834)"/><rect x="545" y="919" width="34" height="34" transform="rotate(0,562,936)"/><rect x="545" y="953" width="34" height="34" transform="rotate(0,562,970)"/><rect x="545" y="987" width="34" height="34" transform="rotate(0,562,1004)"/><path d="M 545 1021v 34h 34a 34 34, 0, 0, 0, -34 -34" transform="rotate(90,562,1038)"/><path d="M 545 1123v 34h 34a 34 34, 0, 0, 0, -34 -34" transform="rotate(-90,562,1140)"/><path d="M 545 1157v 34h 34a 34 34, 0, 0, 0, -34 -34" transform="rotate(90,562,1174)"/><path d="M 579 69v 34h 34a 34 34, 0, 0, 0, -34 -34" transform="rotate(0,596,86)"/><rect x="579" y="103" width="34" height="34" transform="rotate(0,596,120)"/><rect x="579" y="137" width="34" height="34" transform="rotate(0,596,154)"/><rect x="579" y="171" width="34" height="34" transform="rotate(0,596,188)"/><path d="M 579 239v 34h 17a 17 17, 0, 0, 0, 0 -34" transform="rotate(0,596,256)"/><path d="M 579 307v 34h 17a 17 17, 0, 0, 0, 0 -34" transform="rotate(0,596,324)"/><rect x="579" y="409" width="34" height="34" transform="rotate(0,596,426)"/><path d="M 579 443v 34h 34a 34 34, 0, 0, 0, -34 -34" transform="rotate(90,596,460)"/><path d="M 579 613v 34h 17a 17 17, 0, 0, 0, 0 -34" transform="rotate(0,596,630)"/><path d="M 579 681v 34h 17a 17 17, 0, 0, 0, 0 -34" transform="rotate(-90,596,698)"/><rect x="579" y="715" width="34" height="34" transform="rotate(0,596,732)"/><rect x="579" y="749" width="34" height="34" transform="rotate(0,596,766)"/><rect x="579" y="783" width="34" height="34" transform="rotate(0,596,800)"/><path d="M 579 885v 34h 17a 17 17, 0, 0, 0, 0 -34" transform="rotate(-90,596,902)"/><rect x="579" y="919" width="34" height="34" transform="rotate(0,596,936)"/><rect x="579" y="953" width="34" height="34" transform="rotate(0,596,970)"/><path d="M 579 1089v 34h 17a 17 17, 0, 0, 0, 0 -34" transform="rotate(-90,596,1106)"/><path d="M 579 1123v 34h 34a 34 34, 0, 0, 0, -34 -34" transform="rotate(90,596,1140)"/><path d="M 613 1v 34h 17a 17 17, 0, 0, 0, 0 -34" transform="rotate(-90,630,18)"/><path d="M 613 35v 34h 17a 17 17, 0, 0, 0, 0 -34" transform="rotate(90,630,52)"/><path d="M 613 103v 34h 17a 17 17, 0, 0, 0, 0 -34" transform="rotate(0,630,120)"/><rect x="613" y="171" width="34" height="34" transform="rotate(0,630,188)"/><path d="M 613 205v 34h 17a 17 17, 0, 0, 0, 0 -34" transform="rotate(90,630,222)"/><path d="M 613 273v 34h 17a 17 17, 0, 0, 0, 0 -34" transform="rotate(180,630,290)"/><path d="M 613 341v 34h 17a 17 17, 0, 0, 0, 0 -34" transform="rotate(-90,630,358)"/><rect x="613" y="375" width="34" height="34" transform="rotate(0,630,392)"/><rect x="613" y="409" width="34" height="34" transform="rotate(0,630,426)"/><path d="M 613 477v 34h 34a 34 34, 0, 0, 0, -34 -34" transform="rotate(-90,630,494)"/><path d="M 613 511v 34h 17a 17 17, 0, 0, 0, 0 -34" transform="rotate(90,630,528)"/><path d="M 613 579v 34h 17a 17 17, 0, 0, 0, 0 -34" transform="rotate(180,630,596)"/><rect x="613" y="749" width="34" height="34" transform="rotate(0,630,766)"/><rect x="613" y="783" width="34" height="34" transform="rotate(0,630,800)"/><path d="M 613 817v 34h 17a 17 17, 0, 0, 0, 0 -34" transform="rotate(90,630,834)"/><path d="M 613 919v 34h 34a 34 34, 0, 0, 0, -34 -34" transform="rotate(0,630,936)"/><path d="M 613 953v 34h 34a 34 34, 0, 0, 0, -34 -34" transform="rotate(90,630,970)"/><path d="M 613 1021v 34h 17a 17 17, 0, 0, 0, 0 -34" transform="rotate(180,630,1038)"/><path d="M 613 1157v 34h 17a 17 17, 0, 0, 0, 0 -34" transform="rotate(180,630,1174)"/><circle cx="664" cy="86" r="17" transform="rotate(0,664,86)"/><path d="M 647 171v 34h 17a 17 17, 0, 0, 0, 0 -34" transform="rotate(0,664,188)"/><path d="M 647 239v 34h 17a 17 17, 0, 0, 0, 0 -34" transform="rotate(-90,664,256)"/><rect x="647" y="273" width="34" height="34" transform="rotate(0,664,290)"/><path d="M 647 307v 34h 17a 17 17, 0, 0, 0, 0 -34" transform="rotate(90,664,324)"/><rect x="647" y="375" width="34" height="34" transform="rotate(0,664,392)"/><rect x="647" y="409" width="34" height="34" transform="rotate(0,664,426)"/><path d="M 647 477v 34h 17a 17 17, 0, 0, 0, 0 -34" transform="rotate(0,664,494)"/><path d="M 647 579v 34h 17a 17 17, 0, 0, 0, 0 -34" transform="rotate(0,664,596)"/><path d="M 647 647v 34h 17a 17 17, 0, 0, 0, 0 -34" transform="rotate(-90,664,664)"/><path d="M 647 681v 34h 17a 17 17, 0, 0, 0, 0 -34" transform="rotate(90,664,698)"/><path d="M 647 749v 34h 17a 17 17, 0, 0, 0, 0 -34" transform="rotate(0,664,766)"/><path d="M 647 987v 34h 34a 34 34, 0, 0, 0, -34 -34" transform="rotate(-90,664,1004)"/><rect x="647" y="1021" width="34" height="34" transform="rotate(0,664,1038)"/><path d="M 647 1055v 34h 17a 17 17, 0, 0, 0, 0 -34" transform="rotate(90,664,1072)"/><rect x="647" y="1157" width="34" height="34" transform="rotate(0,664,1174)"/><path d="M 647 1225v 34h 17a 17 17, 0, 0, 0, 0 -34" transform="rotate(180,664,1242)"/><path d="M 681 1v 34h 34a 34 34, 0, 0, 0, -34 -34" transform="rotate(-90,698,18)"/><path d="M 681 35v 34h 34a 34 34, 0, 0, 0, -34 -34" transform="rotate(180,698,52)"/><circle cx="698" cy="120" r="17" transform="rotate(0,698,120)"/><circle cx="698" cy="222" r="17" transform="rotate(0,698,222)"/><rect x="681" y="375" width="34" height="34" transform="rotate(0,698,392)"/><rect x="681" y="409" width="34" height="34" transform="rotate(0,698,426)"/><path d="M 681 443v 34h 17a 17 17, 0, 0, 0, 0 -34" transform="rotate(90,698,460)"/><path d="M 681 545v 34h 17a 17 17, 0, 0, 0, 0 -34" transform="rotate(180,698,562)"/><path d="M 681 613v 34h 17a 17 17, 0, 0, 0, 0 -34" transform="rotate(180,698,630)"/><path d="M 681 715v 34h 17a 17 17, 0, 0, 0, 0 -34" transform="rotate(180,698,732)"/><path d="M 681 783v 34h 17a 17 17, 0, 0, 0, 0 -34" transform="rotate(180,698,800)"/><path d="M 681 987v 34h 34a 34 34, 0, 0, 0, -34 -34" transform="rotate(0,698,1004)"/><path d="M 681 1021v 34h 34a 34 34, 0, 0, 0, -34 -34" transform="rotate(90,698,1038)"/><path d="M 681 1157v 34h 34a 34 34, 0, 0, 0, -34 -34" transform="rotate(0,698,1174)"/><rect x="681" y="1191" width="34" height="34" transform="rotate(0,698,1208)"/><path d="M 681 1225v 34h 34a 34 34, 0, 0, 0, -34 -34" transform="rotate(90,698,1242)"/><rect x="715" y="1" width="34" height="34" transform="rotate(0,732,18)"/><rect x="715" y="35" width="34" height="34" transform="rotate(0,732,52)"/><path d="M 715 239v 34h 17a 17 17, 0, 0, 0, 0 -34" transform="rotate(180,732,256)"/><path d="M 715 307v 34h 34a 34 34, 0, 0, 0, -34 -34" transform="rotate(-90,732,324)"/><rect x="715" y="341" width="34" height="34" transform="rotate(0,732,358)"/><path d="M 715 375v 34h 34a 34 34, 0, 0, 0, -34 -34" transform="rotate(90,732,392)"/><path d="M 715 477v 34h 34a 34 34, 0, 0, 0, -34 -34" transform="rotate(-90,732,494)"/><rect x="715" y="511" width="34" height="34" transform="rotate(0,732,528)"/><path d="M 715 545v 34h 34a 34 34, 0, 0, 0, -34 -34" transform="rotate(90,732,562)"/><rect x="715" y="613" width="34" height="34" transform="rotate(0,732,630)"/><path d="M 715 681v 34h 34a 34 34, 0, 0, 0, -34 -34" transform="rotate(-90,732,698)"/><rect x="715" y="715" width="34" height="34" transform="rotate(0,732,732)"/><rect x="715" y="749" width="34" height="34" transform="rotate(0,732,766)"/><path d="M 715 783v 34h 34a 34 34, 0, 0, 0, -34 -34" transform="rotate(90,732,800)"/><path d="M 715 919v 34h 17a 17 17, 0, 0, 0, 0 -34" transform="rotate(180,732,936)"/><circle cx="732" cy="1106" r="17" transform="rotate(0,732,1106)"/><path d="M 749 1v 34h 34a 34 34, 0, 0, 0, -34 -34" transform="rotate(0,766,18)"/><rect x="749" y="35" width="34" height="34" transform="rotate(0,766,52)"/><path d="M 749 69v 34h 17a 17 17, 0, 0, 0, 0 -34" transform="rotate(90,766,86)"/><path d="M 749 137v 34h 17a 17 17, 0, 0, 0, 0 -34" transform="rotate(-90,766,154)"/><rect x="749" y="171" width="34" height="34" transform="rotate(0,766,188)"/><rect x="749" y="205" width="34" height="34" transform="rotate(0,766,222)"/><path d="M 749 239v 34h 34a 34 34, 0, 0, 0, -34 -34" transform="rotate(90,766,256)"/><rect x="749" y="307" width="34" height="34" transform="rotate(0,766,324)"/><rect x="749" y="341" width="34" height="34" transform="rotate(0,766,358)"/><path d="M 749 443v 34h 17a 17 17, 0, 0, 0, 0 -34" transform="rotate(-90,766,460)"/><rect x="749" y="477" width="34" height="34" transform="rotate(0,766,494)"/><path d="M 749 579v 34h 17a 17 17, 0, 0, 0, 0 -34" transform="rotate(-90,766,596)"/><rect x="749" y="613" width="34" height="34" transform="rotate(0,766,630)"/><rect x="749" y="647" width="34" height="34" transform="rotate(0,766,664)"/><rect x="749" y="681" width="34" height="34" transform="rotate(0,766,698)"/><rect x="749" y="715" width="34" height="34" transform="rotate(0,766,732)"/><path d="M 749 817v 34h 17a 17 17, 0, 0, 0, 0 -34" transform="rotate(-90,766,834)"/><rect x="749" y="851" width="34" height="34" transform="rotate(0,766,868)"/><rect x="749" y="885" width="34" height="34" transform="rotate(0,766,902)"/><rect x="749" y="919" width="34" height="34" transform="rotate(0,766,936)"/><path d="M 749 953v 34h 34a 34 34, 0, 0, 0, -34 -34" transform="rotate(180,766,970)"/><circle cx="766" cy="1140" r="17" transform="rotate(0,766,1140)"/><rect x="783" y="35" width="34" height="34" transform="rotate(0,800,52)"/><circle cx="800" cy="120" r="17" transform="rotate(0,800,120)"/><path d="M 783 273v 34h 17a 17 17, 0, 0, 0, 0 -34" transform="rotate(-90,800,290)"/><rect x="783" y="307" width="34" height="34" transform="rotate(0,800,324)"/><rect x="783" y="341" width="34" height="34" transform="rotate(0,800,358)"/><path d="M 783 477v 34h 17a 17 17, 0, 0, 0, 0 -34" transform="rotate(0,800,494)"/><circle cx="800" cy="562" r="17" transform="rotate(0,800,562)"/><path d="M 783 647v 34h 34a 34 34, 0, 0, 0, -34 -34" transform="rotate(0,800,664)"/><rect x="783" y="681" width="34" height="34" transform="rotate(0,800,698)"/><rect x="783" y="715" width="34" height="34" transform="rotate(0,800,732)"/><path d="M 783 749v 34h 17a 17 17, 0, 0, 0, 0 -34" transform="rotate(90,800,766)"/><rect x="783" y="851" width="34" height="34" transform="rotate(0,800,868)"/><path d="M 783 953v 34h 17a 17 17, 0, 0, 0, 0 -34" transform="rotate(0,800,970)"/><path d="M 783 1021v 34h 34a 34 34, 0, 0, 0, -34 -34" transform="rotate(-90,800,1038)"/><path d="M 783 1055v 34h 17a 17 17, 0, 0, 0, 0 -34" transform="rotate(90,800,1072)"/><path d="M 783 1157v 34h 34a 34 34, 0, 0, 0, -34 -34" transform="rotate(-90,800,1174)"/><rect x="783" y="1191" width="34" height="34" transform="rotate(0,800,1208)"/><path d="M 783 1225v 34h 17a 17 17, 0, 0, 0, 0 -34" transform="rotate(90,800,1242)"/><path d="M 817 35v 34h 17a 17 17, 0, 0, 0, 0 -34" transform="rotate(0,834,52)"/><path d="M 817 137v 34h 17a 17 17, 0, 0, 0, 0 -34" transform="rotate(180,834,154)"/><path d="M 817 205v 34h 17a 17 17, 0, 0, 0, 0 -34" transform="rotate(-90,834,222)"/><path d="M 817 239v 34h 17a 17 17, 0, 0, 0, 0 -34" transform="rotate(90,834,256)"/><rect x="817" y="307" width="34" height="34" transform="rotate(0,834,324)"/><rect x="817" y="341" width="34" height="34" transform="rotate(0,834,358)"/><path d="M 817 375v 34h 34a 34 34, 0, 0, 0, -34 -34" transform="rotate(180,834,392)"/><path d="M 817 511v 34h 17a 17 17, 0, 0, 0, 0 -34" transform="rotate(180,834,528)"/><path d="M 817 613v 34h 17a 17 17, 0, 0, 0, 0 -34" transform="rotate(180,834,630)"/><path d="M 817 817v 34h 17a 17 17, 0, 0, 0, 0 -34" transform="rotate(-90,834,834)"/><rect x="817" y="851" width="34" height="34" transform="rotate(0,834,868)"/><circle cx="834" cy="936" r="17" transform="rotate(0,834,936)"/><path d="M 817 987v 34h 17a 17 17, 0, 0, 0, 0 -34" transform="rotate(-90,834,1004)"/><path d="M 817 1021v 34h 34a 34 34, 0, 0, 0, -34 -34" transform="rotate(90,834,1038)"/><rect x="817" y="1157" width="34" height="34" transform="rotate(0,834,1174)"/><path d="M 817 1191v 34h 34a 34 34, 0, 0, 0, -34 -34" transform="rotate(90,834,1208)"/><circle cx="868" cy="18" r="17" transform="rotate(0,868,18)"/><circle cx="868" cy="86" r="17" transform="rotate(0,868,86)"/><path d="M 851 137v 34h 17a 17 17, 0, 0, 0, 0 -34" transform="rotate(0,868,154)"/><path d="M 851 307v 34h 17a 17 17, 0, 0, 0, 0 -34" transform="rotate(0,868,324)"/><path d="M 851 375v 34h 34a 34 34, 0, 0, 0, -34 -34" transform="rotate(0,868,392)"/><path d="M 851 409v 34h 17a 17 17, 0, 0, 0, 0 -34" transform="rotate(90,868,426)"/><path d="M 851 511v 34h 17a 17 17, 0, 0, 0, 0 -34" transform="rotate(0,868,528)"/><path d="M 851 613v 34h 34a 34 34, 0, 0, 0, -34 -34" transform="rotate(0,868,630)"/><path d="M 851 647v 34h 17a 17 17, 0, 0, 0, 0 -34" transform="rotate(90,868,664)"/><rect x="851" y="851" width="34" height="34" transform="rotate(0,868,868)"/><path d="M 851 885v 34h 34a 34 34, 0, 0, 0, -34 -34" transform="rotate(180,868,902)"/><path d="M 851 1089v 34h 34a 34 34, 0, 0, 0, -34 -34" transform="rotate(-90,868,1106)"/><rect x="851" y="1123" width="34" height="34" transform="rotate(0,868,1140)"/><path d="M 851 1157v 34h 34a 34 34, 0, 0, 0, -34 -34" transform="rotate(90,868,1174)"/><path d="M 885 205v 34h 17a 17 17, 0, 0, 0, 0 -34" transform="rotate(-90,902,222)"/><path d="M 885 239v 34h 34a 34 34, 0, 0, 0, -34 -34" transform="rotate(180,902,256)"/><path d="M 885 341v 34h 17a 17 17, 0, 0, 0, 0 -34" transform="rotate(180,902,358)"/><path d="M 885 443v 34h 34a 34 34, 0, 0, 0, -34 -34" transform="rotate(-90,902,460)"/><path d="M 885 477v 34h 34a 34 34, 0, 0, 0, -34 -34" transform="rotate(180,902,494)"/><path d="M 885 545v 34h 17a 17 17, 0, 0, 0, 0 -34" transform="rotate(180,902,562)"/><path d="M 885 681v 34h 34a 34 34, 0, 0, 0, -34 -34" transform="rotate(-90,902,698)"/><path d="M 885 715v 34h 34a 34 34, 0, 0, 0, -34 -34" transform="rotate(180,902,732)"/><path d="M 885 851v 34h 34a 34 34, 0, 0, 0, -34 -34" transform="rotate(0,902,868)"/><rect x="885" y="885" width="34" height="34" transform="rotate(0,902,902)"/><path d="M 885 919v 34h 34a 34 34, 0, 0, 0, -34 -34" transform="rotate(180,902,936)"/><circle cx="902" cy="1004" r="17" transform="rotate(0,902,1004)"/><path d="M 885 1055v 34h 34a 34 34, 0, 0, 0, -34 -34" transform="rotate(-90,902,1072)"/><rect x="885" y="1089" width="34" height="34" transform="rotate(0,902,1106)"/><circle cx="936" cy="86" r="17" transform="rotate(0,936,86)"/><path d="M 919 137v 34h 17a 17 17, 0, 0, 0, 0 -34" transform="rotate(180,936,154)"/><path d="M 919 239v 34h 17a 17 17, 0, 0, 0, 0 -34" transform="rotate(0,936,256)"/><path d="M 919 307v 34h 34a 34 34, 0, 0, 0, -34 -34" transform="rotate(-90,936,324)"/><path d="M 919 341v 34h 34a 34 34, 0, 0, 0, -34 -34" transform="rotate(90,936,358)"/><path d="M 919 443v 34h 34a 34 34, 0, 0, 0, -34 -34" transform="rotate(0,936,460)"/><path d="M 919 477v 34h 34a 34 34, 0, 0, 0, -34 -34" transform="rotate(90,936,494)"/><path d="M 919 545v 34h 17a 17 17, 0, 0, 0, 0 -34" transform="rotate(0,936,562)"/><rect x="919" y="681" width="34" height="34" transform="rotate(0,936,698)"/><path d="M 919 715v 34h 34a 34 34, 0, 0, 0, -34 -34" transform="rotate(90,936,732)"/><path d="M 919 817v 34h 17a 17 17, 0, 0, 0, 0 -34" transform="rotate(180,936,834)"/><path d="M 919 919v 34h 34a 34 34, 0, 0, 0, -34 -34" transform="rotate(0,936,936)"/><path d="M 919 953v 34h 34a 34 34, 0, 0, 0, -34 -34" transform="rotate(180,936,970)"/><path d="M 919 1021v 34h 34a 34 34, 0, 0, 0, -34 -34" transform="rotate(-90,936,1038)"/><rect x="919" y="1055" width="34" height="34" transform="rotate(0,936,1072)"/><rect x="919" y="1089" width="34" height="34" transform="rotate(0,936,1106)"/><rect x="919" y="1123" width="34" height="34" transform="rotate(0,936,1140)"/><rect x="919" y="1157" width="34" height="34" transform="rotate(0,936,1174)"/><path d="M 919 1191v 34h 17a 17 17, 0, 0, 0, 0 -34" transform="rotate(90,936,1208)"/><path d="M 953 1v 34h 17a 17 17, 0, 0, 0, 0 -34" transform="rotate(-90,970,18)"/><path d="M 953 35v 34h 17a 17 17, 0, 0, 0, 0 -34" transform="rotate(90,970,52)"/><path d="M 953 103v 34h 17a 17 17, 0, 0, 0, 0 -34" transform="rotate(-90,970,120)"/><rect x="953" y="137" width="34" height="34" transform="rotate(0,970,154)"/><rect x="953" y="171" width="34" height="34" transform="rotate(0,970,188)"/><path d="M 953 205v 34h 17a 17 17, 0, 0, 0, 0 -34" transform="rotate(90,970,222)"/><path d="M 953 307v 34h 17a 17 17, 0, 0, 0, 0 -34" transform="rotate(0,970,324)"/><path d="M 953 375v 34h 34a 34 34, 0, 0, 0, -34 -34" transform="rotate(-90,970,392)"/><path d="M 953 409v 34h 34a 34 34, 0, 0, 0, -34 -34" transform="rotate(180,970,426)"/><circle cx="970" cy="528" r="17" transform="rotate(0,970,528)"/><path d="M 953 613v 34h 34a 34 34, 0, 0, 0, -34 -34" transform="rotate(-90,970,630)"/><rect x="953" y="647" width="34" height="34" transform="rotate(0,970,664)"/><path d="M 953 681v 34h 34a 34 34, 0, 0, 0, -34 -34" transform="rotate(90,970,698)"/><path d="M 953 749v 34h 34a 34 34, 0, 0, 0, -34 -34" transform="rotate(-90,970,766)"/><rect x="953" y="783" width="34" height="34" transform="rotate(0,970,800)"/><rect x="953" y="817" width="34" height="34" transform="rotate(0,970,834)"/><rect x="953" y="953" width="34" height="34" transform="rotate(0,970,970)"/><rect x="953" y="987" width="34" height="34" transform="rotate(0,970,1004)"/><rect x="953" y="1021" width="34" height="34" transform="rotate(0,970,1038)"/><rect x="953" y="1055" width="34" height="34" transform="rotate(0,970,1072)"/><rect x="953" y="1089" width="34" height="34" transform="rotate(0,970,1106)"/><path d="M 953 1157v 34h 17a 17 17, 0, 0, 0, 0 -34" transform="rotate(0,970,1174)"/><path d="M 987 273v 34h 17a 17 17, 0, 0, 0, 0 -34" transform="rotate(180,1004,290)"/><rect x="987" y="375" width="34" height="34" transform="rotate(0,1004,392)"/><rect x="987" y="409" width="34" height="34" transform="rotate(0,1004,426)"/><circle cx="1004" cy="494" r="17" transform="rotate(0,1004,494)"/><path d="M 987 545v 34h 34a 34 34, 0, 0, 0, -34 -34" transform="rotate(-90,1004,562)"/><rect x="987" y="579" width="34" height="34" transform="rotate(0,1004,596)"/><path d="M 987 613v 34h 34a 34 34, 0, 0, 0, -34 -34" transform="rotate(90,1004,630)"/><path d="M 987 715v 34h 34a 34 34, 0, 0, 0, -34 -34" transform="rotate(-90,1004,732)"/><rect x="987" y="749" width="34" height="34" transform="rotate(0,1004,766)"/><rect x="987" y="783" width="34" height="34" transform="rotate(0,1004,800)"/><rect x="987" y="817" width="34" height="34" transform="rotate(0,1004,834)"/><path d="M 987 851v 34h 17a 17 17, 0, 0, 0, 0 -34" transform="rotate(90,1004,868)"/><rect x="987" y="953" width="34" height="34" transform="rotate(0,1004,970)"/><rect x="987" y="1089" width="34" height="34" transform="rotate(0,1004,1106)"/><path d="M 987 1123v 34h 34a 34 34, 0, 0, 0, -34 -34" transform="rotate(180,1004,1140)"/><rect x="1021" y="273" width="34" height="34" transform="rotate(0,1038,290)"/><rect x="1021" y="375" width="34" height="34" transform="rotate(0,1038,392)"/><rect x="1021" y="409" width="34" height="34" transform="rotate(0,1038,426)"/><path d="M 1021 443v 34h 34a 34 34, 0, 0, 0, -34 -34" transform="rotate(180,1038,460)"/><path d="M 1021 545v 34h 34a 34 34, 0, 0, 0, -34 -34" transform="rotate(0,1038,562)"/><rect x="1021" y="579" width="34" height="34" transform="rotate(0,1038,596)"/><path d="M 1021 647v 34h 17a 17 17, 0, 0, 0, 0 -34" transform="rotate(180,1038,664)"/><rect x="1021" y="715" width="34" height="34" transform="rotate(0,1038,732)"/><rect x="1021" y="749" width="34" height="34" transform="rotate(0,1038,766)"/><path d="M 1021 783v 34h 34a 34 34, 0, 0, 0, -34 -34" transform="rotate(90,1038,800)"/><path d="M 1021 885v 34h 17a 17 17, 0, 0, 0, 0 -34" transform="rotate(180,1038,902)"/><rect x="1021" y="953" width="34" height="34" transform="rotate(0,1038,970)"/><circle cx="1038" cy="1038" r="17" transform="rotate(0,1038,1038)"/><rect x="1021" y="1089" width="34" height="34" transform="rotate(0,1038,1106)"/><rect x="1021" y="1123" width="34" height="34" transform="rotate(0,1038,1140)"/><path d="M 1021 1157v 34h 34a 34 34, 0, 0, 0, -34 -34" transform="rotate(180,1038,1174)"/><rect x="1055" y="273" width="34" height="34" transform="rotate(0,1072,290)"/><path d="M 1055 307v 34h 34a 34 34, 0, 0, 0, -34 -34" transform="rotate(180,1072,324)"/><path d="M 1055 375v 34h 17a 17 17, 0, 0, 0, 0 -34" transform="rotate(0,1072,392)"/><rect x="1055" y="443" width="34" height="34" transform="rotate(0,1072,460)"/><circle cx="1072" cy="528" r="17" transform="rotate(0,1072,528)"/><path d="M 1055 579v 34h 34a 34 34, 0, 0, 0, -34 -34" transform="rotate(0,1072,596)"/><rect x="1055" y="613" width="34" height="34" transform="rotate(0,1072,630)"/><rect x="1055" y="647" width="34" height="34" transform="rotate(0,1072,664)"/><path d="M 1055 715v 34h 17a 17 17, 0, 0, 0, 0 -34" transform="rotate(0,1072,732)"/><path d="M 1055 885v 34h 17a 17 17, 0, 0, 0, 0 -34" transform="rotate(0,1072,902)"/><rect x="1055" y="953" width="34" height="34" transform="rotate(0,1072,970)"/><rect x="1055" y="1089" width="34" height="34" transform="rotate(0,1072,1106)"/><rect x="1055" y="1157" width="34" height="34" transform="rotate(0,1072,1174)"/><rect x="1055" y="1191" width="34" height="34" transform="rotate(0,1072,1208)"/><path d="M 1055 1225v 34h 34a 34 34, 0, 0, 0, -34 -34" transform="rotate(180,1072,1242)"/><path d="M 1089 273v 34h 34a 34 34, 0, 0, 0, -34 -34" transform="rotate(0,1106,290)"/><rect x="1089" y="307" width="34" height="34" transform="rotate(0,1106,324)"/><rect x="1089" y="443" width="34" height="34" transform="rotate(0,1106,460)"/><path d="M 1089 477v 34h 17a 17 17, 0, 0, 0, 0 -34" transform="rotate(90,1106,494)"/><circle cx="1106" cy="562" r="17" transform="rotate(0,1106,562)"/><rect x="1089" y="613" width="34" height="34" transform="rotate(0,1106,630)"/><path d="M 1089 647v 34h 34a 34 34, 0, 0, 0, -34 -34" transform="rotate(90,1106,664)"/><rect x="1089" y="953" width="34" height="34" transform="rotate(0,1106,970)"/><rect x="1089" y="987" width="34" height="34" transform="rotate(0,1106,1004)"/><rect x="1089" y="1021" width="34" height="34" transform="rotate(0,1106,1038)"/><rect x="1089" y="1055" width="34" height="34" transform="rotate(0,1106,1072)"/><rect x="1089" y="1089" width="34" height="34" transform="rotate(0,1106,1106)"/><rect x="1089" y="1123" width="34" height="34" transform="rotate(0,1106,1140)"/><rect x="1089" y="1157" width="34" height="34" transform="rotate(0,1106,1174)"/><path d="M 1089 1225v 34h 17a 17 17, 0, 0, 0, 0 -34" transform="rotate(0,1106,1242)"/><path d="M 1123 307v 34h 34a 34 34, 0, 0, 0, -34 -34" transform="rotate(0,1140,324)"/><rect x="1123" y="341" width="34" height="34" transform="rotate(0,1140,358)"/><rect x="1123" y="375" width="34" height="34" transform="rotate(0,1140,392)"/><rect x="1123" y="409" width="34" height="34" transform="rotate(0,1140,426)"/><rect x="1123" y="443" width="34" height="34" transform="rotate(0,1140,460)"/><path d="M 1123 579v 34h 34a 34 34, 0, 0, 0, -34 -34" transform="rotate(-90,1140,596)"/><rect x="1123" y="613" width="34" height="34" transform="rotate(0,1140,630)"/><path d="M 1123 681v 34h 17a 17 17, 0, 0, 0, 0 -34" transform="rotate(180,1140,698)"/><path d="M 1123 817v 34h 34a 34 34, 0, 0, 0, -34 -34" transform="rotate(-90,1140,834)"/><rect x="1123" y="851" width="34" height="34" transform="rotate(0,1140,868)"/><rect x="1123" y="885" width="34" height="34" transform="rotate(0,1140,902)"/><rect x="1123" y="919" width="34" height="34" transform="rotate(0,1140,936)"/><rect x="1123" y="953" width="34" height="34" transform="rotate(0,1140,970)"/><rect x="1123" y="1021" width="34" height="34" transform="rotate(0,1140,1038)"/><rect x="1123" y="1055" width="34" height="34" transform="rotate(0,1140,1072)"/><rect x="1123" y="1123" width="34" height="34" transform="rotate(0,1140,1140)"/><path d="M 1123 1157v 34h 34a 34 34, 0, 0, 0, -34 -34" transform="rotate(90,1140,1174)"/><rect x="1157" y="443" width="34" height="34" transform="rotate(0,1174,460)"/><path d="M 1157 579v 34h 34a 34 34, 0, 0, 0, -34 -34" transform="rotate(0,1174,596)"/><rect x="1157" y="613" width="34" height="34" transform="rotate(0,1174,630)"/><rect x="1157" y="647" width="34" height="34" transform="rotate(0,1174,664)"/><rect x="1157" y="681" width="34" height="34" transform="rotate(0,1174,698)"/><rect x="1157" y="715" width="34" height="34" transform="rotate(0,1174,732)"/><rect x="1157" y="749" width="34" height="34" transform="rotate(0,1174,766)"/><rect x="1157" y="783" width="34" height="34" transform="rotate(0,1174,800)"/><path d="M 1157 817v 34h 34a 34 34, 0, 0, 0, -34 -34" transform="rotate(90,1174,834)"/><rect x="1157" y="885" width="34" height="34" transform="rotate(0,1174,902)"/><path d="M 1157 953v 34h 17a 17 17, 0, 0, 0, 0 -34" transform="rotate(0,1174,970)"/><rect x="1157" y="1021" width="34" height="34" transform="rotate(0,1174,1038)"/><rect x="1157" y="1055" width="34" height="34" transform="rotate(0,1174,1072)"/><path d="M 1157 1123v 34h 17a 17 17, 0, 0, 0, 0 -34" transform="rotate(0,1174,1140)"/><path d="M 1157 1191v 34h 17a 17 17, 0, 0, 0, 0 -34" transform="rotate(180,1174,1208)"/><path d="M 1191 375v 34h 17a 17 17, 0, 0, 0, 0 -34" transform="rotate(-90,1208,392)"/><rect x="1191" y="409" width="34" height="34" transform="rotate(0,1208,426)"/><rect x="1191" y="443" width="34" height="34" transform="rotate(0,1208,460)"/><path d="M 1191 477v 34h 17a 17 17, 0, 0, 0, 0 -34" transform="rotate(90,1208,494)"/><path d="M 1191 545v 34h 17a 17 17, 0, 0, 0, 0 -34" transform="rotate(180,1208,562)"/><rect x="1191" y="613" width="34" height="34" transform="rotate(0,1208,630)"/><rect x="1191" y="647" width="34" height="34" transform="rotate(0,1208,664)"/><rect x="1191" y="715" width="34" height="34" transform="rotate(0,1208,732)"/><rect x="1191" y="749" width="34" height="34" transform="rotate(0,1208,766)"/><path d="M 1191 783v 34h 34a 34 34, 0, 0, 0, -34 -34" transform="rotate(90,1208,800)"/><path d="M 1191 885v 34h 34a 34 34, 0, 0, 0, -34 -34" transform="rotate(0,1208,902)"/><path d="M 1191 919v 34h 34a 34 34, 0, 0, 0, -34 -34" transform="rotate(180,1208,936)"/><path d="M 1191 1021v 34h 34a 34 34, 0, 0, 0, -34 -34" transform="rotate(0,1208,1038)"/><rect x="1191" y="1055" width="34" height="34" transform="rotate(0,1208,1072)"/><path d="M 1191 1089v 34h 17a 17 17, 0, 0, 0, 0 -34" transform="rotate(90,1208,1106)"/><path d="M 1191 1157v 34h 34a 34 34, 0, 0, 0, -34 -34" transform="rotate(-90,1208,1174)"/><rect x="1191" y="1191" width="34" height="34" transform="rotate(0,1208,1208)"/><path d="M 1225 443v 34h 17a 17 17, 0, 0, 0, 0 -34" transform="rotate(0,1242,460)"/><path d="M 1225 511v 34h 17a 17 17, 0, 0, 0, 0 -34" transform="rotate(-90,1242,528)"/><rect x="1225" y="545" width="34" height="34" transform="rotate(0,1242,562)"/><rect x="1225" y="579" width="34" height="34" transform="rotate(0,1242,596)"/><rect x="1225" y="613" width="34" height="34" transform="rotate(0,1242,630)"/><rect x="1225" y="647" width="34" height="34" transform="rotate(0,1242,664)"/><rect x="1225" y="681" width="34" height="34" transform="rotate(0,1242,698)"/><rect x="1225" y="715" width="34" height="34" transform="rotate(0,1242,732)"/><path d="M 1225 749v 34h 34a 34 34, 0, 0, 0, -34 -34" transform="rotate(90,1242,766)"/><circle cx="1242" cy="834" r="17" transform="rotate(0,1242,834)"/><path d="M 1225 919v 34h 17a 17 17, 0, 0, 0, 0 -34" transform="rotate(0,1242,936)"/><circle cx="1242" cy="1004" r="17" transform="rotate(0,1242,1004)"/><path d="M 1225 1157v 34h 34a 34 34, 0, 0, 0, -34 -34" transform="rotate(0,1242,1174)"/><rect x="1225" y="1191" width="34" height="34" transform="rotate(0,1242,1208)"/><path d="M 1225 1225v 34h 17a 17 17, 0, 0, 0, 0 -34" transform="rotate(90,1242,1242)"/></clipPath><radialGradient id="dot-color" gradientUnits="userSpaceOnUse" fx="630" fy="630" cx="630" cy="630" r="629"><stop offset="0%" stop-color="#cdeaf1"/><stop offset="10%" stop-color="#99d3df"/><stop offset="30%" stop-color="#00708e"/><stop offset="100%" stop-color="#00334e"/></radialGradient><clipPath id="clip-path-corners-square-color-0-0"><path clip-rule="evenodd" d="M 1 86v 68a 85 85, 0, 0, 0, 85 85h 68a 85 85, 0, 0, 0, 85 -85v -68a 85 85, 0, 0, 0, -85 -85h -68a 85 85, 0, 0, 0, -85 85M 86 35h 68a 51 51, 0, 0, 1, 51 51v 68a 51 51, 0, 0, 1, -51 51h -68a 51 51, 0, 0, 1, -51 -51v -68a 51 51, 0, 0, 1, 51 -51" transform="rotate(0,120,120)"/><path d="M 69 69v 34h 34a 34 34, 0, 0, 0, -34 -34" transform="rotate(-90,86,86)"/><rect x="69" y="103" width="34" height="34" transform="rotate(0,86,120)"/><path d="M 69 137v 34h 34a 34 34, 0, 0, 0, -34 -34" transform="rotate(180,86,154)"/><rect x="103" y="69" width="34" height="34" transform="rotate(0,120,86)"/><rect x="103" y="103" width="34" height="34" transform="rotate(0,120,120)"/><rect x="103" y="137" width="34" height="34" transform="rotate(0,120,154)"/><path d="M 137 69v 34h 34a 34 34, 0, 0, 0, -34 -34" transform="rotate(0,154,86)"/><rect x="137" y="103" width="34" height="34" transform="rotate(0,154,120)"/><path d="M 137 137v 34h 34a 34 34, 0, 0, 0, -34 -34" transform="rotate(90,154,154)"/></clipPath><clipPath id="clip-path-corners-square-color-1-0"><path clip-rule="evenodd" d="M 1021 86v 68a 85 85, 0, 0, 0, 85 85h 68a 85 85, 0, 0, 0, 85 -85v -68a 85 85, 0, 0, 0, -85 -85h -68a 85 85, 0, 0, 0, -85 85M 1106 35h 68a 51 51, 0, 0, 1, 51 51v 68a 51 51, 0, 0, 1, -51 51h -68a 51 51, 0, 0, 1, -51 -51v -68a 51 51, 0, 0, 1, 51 -51" transform="rotate(90,1140,120)"/><path d="M 1089 69v 34h 34a 34 34, 0, 0, 0, -34 -34" transform="rotate(-90,1106,86)"/><rect x="1089" y="103" width="34" height="34" transform="rotate(0,1106,120)"/><path d="M 1089 137v 34h 34a 34 34, 0, 0, 0, -34 -34" transform="rotate(180,1106,154)"/><rect x="1123" y="69" width="34" height="34" transform="rotate(0,1140,86)"/><rect x="1123" y="103" width="34" height="34" transform="rotate(0,1140,120)"/><rect x="1123" y="137" width="34" height="34" transform="rotate(0,1140,154)"/><path d="M 1157 69v 34h 34a 34 34, 0, 0, 0, -34 -34" transform="rotate(0,1174,86)"/><rect x="1157" y="103" width="34" height="34" transform="rotate(0,1174,120)"/><path d="M 1157 137v 34h 34a 34 34, 0, 0, 0, -34 -34" transform="rotate(90,1174,154)"/></clipPath><clipPath id="clip-path-corners-square-color-0-1"><path clip-rule="evenodd" d="M 1 1106v 68a 85 85, 0, 0, 0, 85 85h 68a 85 85, 0, 0, 0, 85 -85v -68a 85 85, 0, 0, 0, -85 -85h -68a 85 85, 0, 0, 0, -85 85M 86 1055h 68a 51 51, 0, 0, 1, 51 51v 68a 51 51, 0, 0, 1, -51 51h -68a 51 51, 0, 0, 1, -51 -51v -68a 51 51, 0, 0, 1, 51 -51" transform="rotate(-90,120,1140)"/><path d="M 69 1089v 34h 34a 34 34, 0, 0, 0, -34 -34" transform="rotate(-90,86,1106)"/><rect x="69" y="1123" width="34" height="34" transform="rotate(0,86,1140)"/><path d="M 69 1157v 34h 34a 34 34, 0, 0, 0, -34 -34" transform="rotate(180,86,1174)"/><rect x="103" y="1089" width="34" height="34" transform="rotate(0,120,1106)"/><rect x="103" y="1123" width="34" height="34" transform="rotate(0,120,1140)"/><rect x="103" y="1157" width="34" height="34" transform="rotate(0,120,1174)"/><path d="M 137 1089v 34h 34a 34 34, 0, 0, 0, -34 -34" transform="rotate(0,154,1106)"/><rect x="137" y="1123" width="34" height="34" transform="rotate(0,154,1140)"/><path d="M 137 1157v 34h 34a 34 34, 0, 0, 0, -34 -34" transform="rotate(90,154,1174)"/></clipPath></defs><rect x="0" y="0" height="1260" width="1260" clip-path="url('#clip-path-background-color')" fill="#fff"/><rect x="1" y="1" height="1258" width="1258" clip-path="url('#clip-path-dot-color')" fill="url('#dot-color')"/><rect x="1" y="1" height="238" width="238" clip-path="url('#clip-path-corners-square-color-0-0')" fill="#f15927"/><rect x="1021" y="1" height="238" width="238" clip-path="url('#clip-path-corners-square-color-1-0')" fill="#f15927"/><rect x="1" y="1021" height="238" width="238" clip-path="url('#clip-path-corners-square-color-0-1')" fill="#f15927"/></svg>